<?xml version="1.0" encoding="utf-8"?>
<!-- Generator: Adobe Illustrator 21.0.2, SVG Export Plug-In . SVG Version: 6.00 Build 0)  -->
<svg version="1.1" id="Layer_1" xmlns="http://www.w3.org/2000/svg" xmlns:xlink="http://www.w3.org/1999/xlink" x="0px" y="0px"
	 viewBox="0 0 237.1 65" style="enable-background:new 0 0 237.1 65;" xml:space="preserve">
<style type="text/css">
	.st0{fill:#205196;}
	.st1{fill:#DBDBDB;}
	.st2{clip-path:url(#SVGID_2_);fill:#58AE6B;}
	.st3{clip-path:url(#SVGID_4_);fill:#58AE6B;}
	.st4{clip-path:url(#SVGID_6_);fill:#DDC7D2;}
	.st5{clip-path:url(#SVGID_8_);fill:#9CC034;}
	.st6{clip-path:url(#SVGID_10_);fill:#DD2D72;}
	.st7{clip-path:url(#SVGID_12_);fill:#DD2D72;}
	.st8{clip-path:url(#SVGID_14_);fill:#DD2D72;}
	.st9{clip-path:url(#SVGID_16_);fill:#DD2D72;}
	.st10{clip-path:url(#SVGID_18_);fill:#DD2D72;}
	.st11{clip-path:url(#SVGID_20_);fill:#DD2D72;}
	.st12{clip-path:url(#SVGID_22_);fill:#DD2D72;}
	.st13{clip-path:url(#SVGID_24_);fill:#DD2D72;}
	.st14{clip-path:url(#SVGID_26_);fill:#DD2D72;}
	.st15{clip-path:url(#SVGID_28_);fill:#DF315A;}
	.st16{clip-path:url(#SVGID_30_);fill:#FCF1EF;}
	.st17{fill:#0086C6;}
	.st18{fill:#F4F5DF;}
	.st19{fill:#FFFFFF;stroke:#FFFFFF;stroke-miterlimit:10;}
	.st20{fill:#FFFFFF;stroke:#FFFFFF;stroke-width:0.75;stroke-miterlimit:10;}
</style>
<g>
	<g>
		<g>
			<path class="st0" d="M55,34.2c0,13.5-11,24.5-24.5,24.5c-13.5,0-24.5-11-24.5-24.5c0-13.5,11-24.5,24.5-24.5
				C44.1,9.7,55,20.7,55,34.2"/>
			<path class="st1" d="M52.6,34.2c0,12.2-9.9,22-22,22c-12.2,0-22-9.9-22-22c0-12.2,9.9-22,22-22C42.7,12.2,52.6,22,52.6,34.2"/>
		</g>
		<g>
			<g>
				<defs>
					<path id="SVGID_1_" d="M8.6,34.2c0,12.1,9.8,21.9,21.9,21.9c12.1,0,21.9-9.8,21.9-21.9c0-12.1-9.8-21.9-21.9-21.9
						C18.4,12.2,8.6,22.1,8.6,34.2"/>
				</defs>
				<clipPath id="SVGID_2_">
					<use xlink:href="#SVGID_1_"  style="overflow:visible;"/>
				</clipPath>
				<polygon class="st2" points="42,0.5 48.8,-0.2 49.8,3.7 44.2,6.3 				"/>
			</g>
			<g>
				<defs>
					<path id="SVGID_3_" d="M8.6,34.2c0,12.1,9.8,21.9,21.9,21.9c12.1,0,21.9-9.8,21.9-21.9c0-12.1-9.8-21.9-21.9-21.9
						C18.4,12.2,8.6,22.1,8.6,34.2"/>
				</defs>
				<clipPath id="SVGID_4_">
					<use xlink:href="#SVGID_3_"  style="overflow:visible;"/>
				</clipPath>
				<polygon class="st3" points="17.3,31.7 21.4,40.5 28,40.5 26.1,33.8 22.9,28.1 				"/>
			</g>
			<g>
				<defs>
					<path id="SVGID_5_" d="M8.6,34.2c0,12.1,9.8,21.9,21.9,21.9c12.1,0,21.9-9.8,21.9-21.9c0-12.1-9.8-21.9-21.9-21.9
						C18.4,12.2,8.6,22.1,8.6,34.2"/>
				</defs>
				<clipPath id="SVGID_6_">
					<use xlink:href="#SVGID_5_"  style="overflow:visible;"/>
				</clipPath>
				<polyline class="st4" points="53.7,13.2 56.1,22.1 72.8,18.8 71.2,11.1 68.9,6.2 52.9,13.2 				"/>
			</g>
			<g>
				<defs>
					<path id="SVGID_7_" d="M8.6,34.2c0,12.1,9.8,21.9,21.9,21.9c12.1,0,21.9-9.8,21.9-21.9c0-12.1-9.8-21.9-21.9-21.9
						C18.4,12.2,8.6,22.1,8.6,34.2"/>
				</defs>
				<clipPath id="SVGID_8_">
					<use xlink:href="#SVGID_7_"  style="overflow:visible;"/>
				</clipPath>
				<polyline class="st5" points="2.3,29.3 4.8,38.2 16.7,32.5 14.6,28.6 11,23.8 -1.1,26 				"/>
			</g>
			<g>
				<defs>
					<path id="SVGID_9_" d="M8.6,34.2c0,12.1,9.8,21.9,21.9,21.9c12.1,0,21.9-9.8,21.9-21.9c0-12.1-9.8-21.9-21.9-21.9
						C18.4,12.2,8.6,22.1,8.6,34.2"/>
				</defs>
				<clipPath id="SVGID_10_">
					<use xlink:href="#SVGID_9_"  style="overflow:visible;"/>
				</clipPath>
				<path class="st6" d="M5.1,5.4l-0.3,0c0-0.1,0-0.2,0-0.3l0.3,0C5.1,5.3,5.1,5.4,5.1,5.4"/>
			</g>
			<g>
				<defs>
					<path id="SVGID_11_" d="M8.6,34.2c0,12.1,9.8,21.9,21.9,21.9c12.1,0,21.9-9.8,21.9-21.9c0-12.1-9.8-21.9-21.9-21.9
						C18.4,12.2,8.6,22.1,8.6,34.2"/>
				</defs>
				<clipPath id="SVGID_12_">
					<use xlink:href="#SVGID_11_"  style="overflow:visible;"/>
				</clipPath>
				<path class="st7" d="M5.1,4.7l-0.3,0c0,0,0-0.1,0-0.2c0-0.1,0-0.2,0-0.4l0.3,0c0,0.1,0,0.3,0,0.4C5.1,4.6,5.1,4.6,5.1,4.7
					 M5.1,3.6l-0.3,0c0-0.2,0-0.3,0-0.5l0.3,0C5.2,3.3,5.2,3.4,5.1,3.6 M5.2,2.5l-0.3,0L5,2l0.3,0L5.2,2.5z"/>
			</g>
			<g>
				<defs>
					<path id="SVGID_13_" d="M7.5,34.3C7.1,46.4,16.6,56.5,28.7,57c12.1,0.4,22.3-9.1,22.7-21.2c0.4-12.1-9.1-22.3-21.2-22.7
						C18.1,12.7,7.9,22.2,7.5,34.3"/>
				</defs>
				<clipPath id="SVGID_14_">
					<use xlink:href="#SVGID_13_"  style="overflow:visible;"/>
				</clipPath>
				
					<rect x="5" y="1.2" transform="matrix(3.450016e-02 -0.9994 0.9994 3.450016e-02 3.5695 6.4027)" class="st8" width="0.3" height="0.3"/>
			</g>
			<g>
				<defs>
					<path id="SVGID_15_" d="M8.6,34.2c0,12.1,9.8,21.9,21.9,21.9c12.1,0,21.9-9.8,21.9-21.9c0-12.1-9.8-21.9-21.9-21.9
						C18.4,12.2,8.6,22.1,8.6,34.2"/>
				</defs>
				<clipPath id="SVGID_16_">
					<use xlink:href="#SVGID_15_"  style="overflow:visible;"/>
				</clipPath>
				<path class="st9" d="M10.5,22.7c0-0.1-0.1-0.1-0.1-0.2l0.2-0.1c0,0.1,0.1,0.1,0.1,0.2L10.5,22.7z"/>
			</g>
			<g>
				<defs>
					<path id="SVGID_17_" d="M8.6,34.2c0,12.1,9.8,21.9,21.9,21.9c12.1,0,21.9-9.8,21.9-21.9c0-12.1-9.8-21.9-21.9-21.9
						C18.4,12.2,8.6,22.1,8.6,34.2"/>
				</defs>
				<clipPath id="SVGID_18_">
					<use xlink:href="#SVGID_17_"  style="overflow:visible;"/>
				</clipPath>
				<path class="st10" d="M10.1,22c-0.1-0.1-0.2-0.3-0.2-0.4l0,0l0.2-0.1l0,0c0.1,0.1,0.1,0.2,0.2,0.4L10.1,22z M9.6,21.2
					c-0.1-0.2-0.2-0.3-0.2-0.4l0.2-0.1c0.1,0.1,0.1,0.3,0.2,0.4L9.6,21.2z M9.2,20.3c-0.1-0.1-0.1-0.3-0.2-0.5l0.2-0.1
					c0.1,0.2,0.1,0.3,0.2,0.4L9.2,20.3z M8.9,19.4c0-0.1-0.1-0.3-0.1-0.5L9,18.9C9,19,9.1,19.2,9.1,19.3L8.9,19.4z M8.6,18.5
					c0-0.1-0.1-0.3-0.1-0.5L8.7,18c0,0.2,0.1,0.3,0.1,0.5L8.6,18.5z M8.3,17.6c-0.1-0.1-0.1-0.3-0.2-0.4L8.4,17
					c0.1,0.2,0.1,0.3,0.2,0.4L8.3,17.6z M8,16.7l-0.2-0.4L8,16.2l0.2,0.4L8,16.7z M7.6,15.8c-0.1-0.1-0.1-0.3-0.2-0.4l0.2-0.1
					c0.1,0.1,0.1,0.3,0.2,0.4L7.6,15.8z"/>
			</g>
			<g>
				<defs>
					<path id="SVGID_19_" d="M-10.2,23.1C-21.5,27.6-27,40.3-22.5,51.6c4.5,11.3,17.2,16.8,28.5,12.3c11.3-4.5,16.8-17.2,12.3-28.5
						C13.8,24.2,1,18.7-10.2,23.1"/>
				</defs>
				<clipPath id="SVGID_20_">
					<use xlink:href="#SVGID_19_"  style="overflow:visible;"/>
				</clipPath>
				
					<rect x="7.2" y="14.6" transform="matrix(0.9295 -0.3687 0.3687 0.9295 -4.9246 3.7391)" class="st11" width="0.3" height="0.3"/>
			</g>
			<g>
				<defs>
					<path id="SVGID_21_" d="M8.6,34.2c0,12.1,9.8,21.9,21.9,21.9c12.1,0,21.9-9.8,21.9-21.9c0-12.1-9.8-21.9-21.9-21.9
						C18.4,12.2,8.6,22.1,8.6,34.2"/>
				</defs>
				<clipPath id="SVGID_22_">
					<use xlink:href="#SVGID_21_"  style="overflow:visible;"/>
				</clipPath>
				<path class="st12" d="M15.7,32.5l-0.3,0c0,0,0-0.1,0-0.2l0.3-0.1C15.7,32.4,15.7,32.5,15.7,32.5"/>
			</g>
			<g>
				<defs>
					<path id="SVGID_23_" d="M8.6,34.2c0,12.1,9.8,21.9,21.9,21.9c12.1,0,21.9-9.8,21.9-21.9c0-12.1-9.8-21.9-21.9-21.9
						C18.4,12.2,8.6,22.1,8.6,34.2"/>
				</defs>
				<clipPath id="SVGID_24_">
					<use xlink:href="#SVGID_23_"  style="overflow:visible;"/>
				</clipPath>
				<path class="st13" d="M15.3,31.8c0-0.1-0.1-0.3-0.1-0.4l0.2-0.1c0,0.2,0.1,0.3,0.1,0.4L15.3,31.8z"/>
			</g>
			<g>
				<defs>
					<path id="SVGID_25_" d="M8.6,34.2c0,12.1,9.8,21.9,21.9,21.9c12.1,0,21.9-9.8,21.9-21.9c0-12.1-9.8-21.9-21.9-21.9
						C18.4,12.2,8.6,22.1,8.6,34.2"/>
				</defs>
				<clipPath id="SVGID_26_">
					<use xlink:href="#SVGID_25_"  style="overflow:visible;"/>
				</clipPath>
				<path class="st14" d="M15.1,31c0-0.1-0.1-0.2-0.1-0.2l0.2-0.1c0,0.1,0.1,0.2,0.1,0.2L15.1,31z"/>
			</g>
			<g>
				<defs>
					<path id="SVGID_27_" d="M8.6,34.2c0,12.1,9.8,21.9,21.9,21.9c12.1,0,21.9-9.8,21.9-21.9c0-12.1-9.8-21.9-21.9-21.9
						C18.4,12.2,8.6,22.1,8.6,34.2"/>
				</defs>
				<clipPath id="SVGID_28_">
					<use xlink:href="#SVGID_27_"  style="overflow:visible;"/>
				</clipPath>
				<polygon class="st15" points="64.1,14.6 63.2,14.6 63.2,13.7 61.8,13.7 61.9,14.6 61,14.6 61,16 61.9,16 61.9,16.9 63.3,16.8 
					63.2,15.9 64.1,15.9 				"/>
			</g>
			<g>
				<defs>
					<path id="SVGID_29_" d="M8.6,34.2c0,12.1,9.8,21.9,21.9,21.9c12.1,0,21.9-9.8,21.9-21.9c0-12.1-9.8-21.9-21.9-21.9
						C18.4,12.2,8.6,22.1,8.6,34.2"/>
				</defs>
				<clipPath id="SVGID_30_">
					<use xlink:href="#SVGID_29_"  style="overflow:visible;"/>
				</clipPath>
				<path class="st16" d="M74.7,3.4c-1.8,0.7-3.8,1.4-5.7,2.1l-3-6.1h-3c-0.8,0.4-1.8,0.8-3,1.4c-1.9,0.9-3.8,1.9-4.7,2.3
					c0,0-0.1,0-0.1,0l-3.3,1l-1.6,0.3c-0.2-0.6-0.3-1.2-0.4-1.6c-0.1-0.6-0.2-1.1-0.4-1.6c-0.2-0.8-0.3-1.4-0.4-1.9h-1
					c0,0,0,0,0,0.1l-2.2,0.3l0-0.4h-0.9l0,0.5l-2,0.3c-0.1-0.3-0.2-0.5-0.2-0.8h-2.1c0.2,0.5,0.3,1,0.5,1.5
					c-0.1-0.1-0.2-0.1-0.3-0.1l-7.2,0c-0.1,0-0.3,0.1-0.3,0.2C33.1,1.1,33,1.2,33,1.3l0.6,3.4c-0.7,0-1.5,0-2.3,0l0-0.9l1.5-0.1
					c0.2,0,0.4-0.2,0.4-0.5c0-0.2-0.2-0.4-0.5-0.4l-2.7,0.2c-0.2,0-0.4,0.2-0.4,0.4c0,0.2,0.2,0.4,0.4,0.4l0.3,0l0,0.9
					c-3.4,0.1-5.7,0.4-6.9,0.9c0,0,0,0,0,0l-3.4-1.6l1.6-3.1c0.9,0.1,1.7,0.3,2.5,0.3c5.6,0.3,6.8,0.2,7.1-0.4
					c0.1-0.2,0.3-0.8,0.4-1.5h-0.9c0,0.4-0.1,0.8-0.2,1c-0.4,0.2-2.3,0.2-4.1,0.1l0.1-1.1h-1l-0.1,1c-0.5,0-0.9,0-1.2-0.1
					c-0.7,0-1.5-0.1-2.3-0.2c0-0.2,0.1-0.5,0.1-0.7h-0.9c0,0.2-0.1,0.4-0.1,0.6c-0.8-0.2-1.7-0.4-2.4-0.6h-3c1.3,0.4,3.2,1,5.2,1.4
					l-1.5,2.9l-4.7-2.3l0.1-2H14l0,1.9c-1,0-4.3,0-7.9,0c0-0.6,0-1.3,0.1-1.9h-2c0,0.7,0,1.3-0.1,1.9c-1.6,0-3.1,0-4.4,0l0.3-1.9
					h-0.9l-0.3,1.9c-1.4,0-2.4,0-2.7,0c-0.8,0-1.5,0.2-2.1,0.5C-6.3,1-6.7,0.3-7.3-0.6h-2.5c1,1.4,1.6,2.3,2,3.2
					C-7.3,3.9-7.5,5-7.8,7.4c0,0.3-0.1,0.6-0.1,1c-0.4,3.7,0,6.4,0.4,8l-5.9,0.5v0.9l5.3-0.4c0,0,0,0.1,0,0.1l0.8,2.6l-1.4,0.3
					c0,0,0,0,0,0l-2.4,0.5l-1.7-2.7c-0.1-0.2-0.3-0.3-0.6-0.3v1.5l1.5,2.4c0.1,0.2,0.4,0.3,0.6,0.3l2.3-0.4l0.9,2.4l-2,1.1
					c-0.3,0.1-0.4,0.5-0.2,0.8c0.1,0.3,0.5,0.4,0.8,0.2l2.5-1.3c0.3-0.1,0.4-0.4,0.3-0.7l-1-2.7l0.9-0.2l1.5,5.1l-0.7,0.2
					c-0.2,0-0.3,0.2-0.4,0.3c-0.1,0.2-0.1,0.3,0,0.5l7.3,12.9c-0.1,0.1-0.3,0.2-0.4,0.3C-0.1,40.7-0.6,41-1,41.3L-7.7,32
					c-0.2-0.2-0.4-0.3-0.7-0.2l-3.9,1.7c-0.4-0.4-0.7-0.8-1.1-1.3v1.7c0.1,0.1,0.2,0.2,0.2,0.2l-0.2,0.3v1.7l1-1.2
					c1.2,1.3,2.2,2.1,2.9,2.7c1.1,1,1.4,1.3,1.4,1.7l0,0.6c-1.2,0.3-3.3,1.4-5.3,2.6V45c2.2-1.4,4.8-2.9,5.9-3.1
					c0.5,0.4,1.4,1.2,2.3,2.2c-2.8,1.8-5.9,3.6-8.2,4.5v5.2c1.1,3,2.8,8.8,3.5,12.5c0,0,0,0,0,0l-1.4,0.1l-2.1-11v6.1l0.9,5
					l-0.9,0.1v1.1l1.2-0.1l1.3,6.8c0,0.3,0.3,0.4,0.5,0.5l0.8,0.1c0.2,1.2,0.5,2.3,1.1,2.9c0.2,0.2,0.3,0.3,0.5,0.5
					c-1.7,0.3-3.5,1-5.3,1.7c0,0,0,0,0,0v2.2c0.3-0.1,0.5-0.2,0.8-0.3c3.6-1.4,7.1-2.7,8.6-0.9c0.4,0.5,0.9,1,1.3,1.5
					c-0.9,2.3-0.9,4-0.8,4.9h2c0,0,0,0,0,0c0-0.1-0.2-1.1,0.2-2.8c0.1,0.1,0.3,0.2,0.5,0.2c0,0,0.1,0,0.1,0l0,0c1,1,2,1.9,2.7,2.6
					h3.1c-0.4-0.4-1.9-1.6-3.7-3.4l1.5-0.5c0.3-0.1,0.4-0.4,0.3-0.7c-0.1-0.3-0.4-0.4-0.7-0.3l-2,0.7c-0.3-0.3-0.6-0.6-0.9-0.9
					c0.2-0.4,0.4-0.7,0.7-1.1c0.2-0.4,0.5-0.8,0.8-1.2c0.5-0.6,0.9-1.2,1.2-1.8c0-0.1,0.1-0.1,0.1-0.2c1.5-0.1,3.3-0.4,5.1-0.8
					l2.7,10.3h1.2L8.6,76.9c0.4-0.1,0.7-0.2,1.1-0.3L13,87.5h1.2l-3.4-11.3c0.6-0.2,1.1-0.5,1.6-0.8c1.5-0.9,3.3-1.5,5.6-2l1.2,3.9
					c0,0,0,0,0,0l2.5,8.2c-0.3,0.1-0.4,0.2-0.4,0.2c0,0,0,0-0.1,0c-1.3,0.7-2.5,1.3-3.7,1.8h4.7c0.5-0.2,2.3-1,4-1.8
					c0.3,0.9,0.5,1.5,0.5,1.6c0,0.1,0,0.1,0.1,0.1l0,0l2.4,0c-0.2-0.3-0.4-0.6-0.6-0.9c-0.1-0.2-0.3-0.8-0.6-1.8
					c0.2-0.1,0.4-0.2,0.6-0.3c2.1-1,4.4-1.5,7.1-1.6l0.2,4.4h8.4c1.9-0.3,3.6-0.6,3.9-0.8c1.4-0.4,18.2-3,19.6-2.8
					c0.1,0,0.2,0,0.3,0c0.2,0,0.3-0.1,0.4-0.3c0.1-0.3,0-0.6-0.3-0.8c-0.2-0.1-0.7-0.3-10.1,1.1c-4.4,0.6-9.5,1.5-10.2,1.7
					c-1.2,0.4-8.9,1.6-10.9,1.5L36.9,83c0.3,0,0.6,0,0.9,0c0.8,0,1.8,0.1,2.8,0.1l0.1,2.9c0,0.3,0.3,0.6,0.6,0.6c0,0,0.1,0,0.1,0
					c0.3,0,0.5-0.3,0.5-0.6l-0.1-2.8c4-0.1,8.3-0.4,8.8-0.5c1.9,0,5.6-0.4,9.2-0.9c0,0,0,0,0,0c0,0,0,0,0,0c2.2-0.4,4.4-0.8,6.1-1.2
					c1.9-0.5,5.1-1.2,8.9-1.4v-2c-3.2,0.1-6.4,0.6-9.5,1.5c-1.4,0.4-3.1,0.7-5,1.1c-0.5-1.7-1.5-5.6-2.4-9.9
					c2.3-0.1,4.9-0.3,8.1-0.6c2.4-0.3,5.5-0.4,8.8-0.4v-2c-3.3,0-6.5,0.1-9,0.4c-3.4,0.4-6,0.6-8.3,0.6c-0.4-1.8-0.7-3.7-1-5.4
					c-0.3-2-0.7-4.4-1-6.9c0.7-0.1,2.3-0.1,4.1,0.3c1.4,0.3,4.6,0.7,7.7,1c2,0.1,5.4,0.3,7.5,0v-0.9c-3.6,0.6-12.5-0.3-15-0.9
					c-1.9-0.5-3.6-0.4-4.4-0.3c-0.2-1.2-0.3-2.5-0.5-3.7l1,0c0,0,0,0,0.1,0c0.2,0,0.4-0.2,0.4-0.5l0-2.9c0.3,0.1,0.6,0.1,1-0.1
					c0.5-0.2,0.7-0.8,0.6-1.6c-0.1-1.1-0.1-1.8-0.1-2.1l1.6-0.3c0.1,0,0.3-0.1,0.3-0.2c0.1-0.1,0.1-0.3,0.1-0.4c0,0,0-0.2-0.1-0.5
					c0.7,0,1.3,0,2,0.1l-0.2,0.8c0,0.2,0.1,0.3,0.2,0.4c0.2,0,0.3-0.1,0.4-0.2l0.2-0.9c0.6,0,1.1,0.1,1.7,0.1l0,1.8
					c0,0.2,0.1,0.3,0.3,0.3c0,0,0,0,0,0c0.2,0,0.3-0.2,0.3-0.3l0-1.7c0.5,0,0.9,0.1,1.4,0.1l0,1.6c0,0.2,0.2,0.4,0.5,0.4
					c0,0,0,0,0.1,0c0.2,0,0.4-0.2,0.4-0.4l0-1.5c0.3,0,0.6,0,0.9,0.1l-0.1,1.4c0,0.2,0.2,0.5,0.4,0.5c0.2,0,0.5-0.2,0.5-0.4l0.1-1.4
					c0.4,0,0.8,0.1,1.3,0.1l-0.3,1.1c0,0.1,0,0.3,0.1,0.4c0.1,0.1,0.2,0.2,0.4,0.2l1.2,0l-0.5,8c0,0.2,0.2,0.5,0.4,0.5
					c0,0,0.1,0,0.1,0c0.2,0,0.4-0.2,0.4-0.4l0.6-8.5c0-0.1,0-0.2-0.1-0.3c-0.1-0.1-0.2-0.1-0.3-0.1l-1.1,0l0.2-0.7
					c1.1,0.1,2.1,0.3,3.1,0.5c0.2,0.1,0.5,0.1,0.7,0.2v-1.3c-0.1,0-0.2,0-0.3-0.1c0.1-0.4,0.2-1,0.2-1.8c0-0.6,0.1-1.2,0.1-1.8
					c0,0,0,0,0,0v-0.9c0,0,0,0,0,0c0-1.9-0.2-4.1-0.5-6.6c0,0,0-0.1,0-0.1c0,0,0-0.1,0-0.1l-0.1-1.9l0.6,0v-1.1l-0.7,0
					c-0.1-0.7-0.1-1.4-0.2-2.1c0.3,0,0.6,0,0.9,0v-1.1c-0.5,0-0.8,0-1.1,0c-0.1-0.7-0.1-1.3-0.2-2l1.3,0v-1l-1.4,0
					c-0.1-0.9-0.2-1.8-0.4-2.6c0.3,0,1,0,1.8-0.1v-1c-0.9,0-1.7,0.1-1.9,0.1c-0.5-2.9-0.9-5.3-1.4-7.2l3.3-1.4v-1l-3.5,1.5
					c-0.4-1.6-0.7-2.6-0.8-3.1c1.5-0.5,2.9-1,4.3-1.5L74.7,3.4L74.7,3.4z M-12.8,30.2c0.1,0.1,0.3,0,0.4,0l5.3-2.5
					c0.3-0.1,0.4-0.5,0.3-0.8c-0.1-0.3-0.5-0.4-0.8-0.3l-4.8,2.3c-0.2-0.4-0.5-1-0.8-1.6l1.9-0.9c0.1-0.1,0.3-0.2,0.3-0.3
					c0.1-0.1,0-0.3,0-0.4l-2.6-4.8v2.4l1.3,2.4l-1.3,0.6v3c0.1,0.3,0.2,0.5,0.3,0.7C-13.1,30-12.9,30.1-12.8,30.2 M55.5,3.9
					c1-0.5,2.9-1.4,4.8-2.4c1.9-0.9,3.3-1.6,4.2-2c0.1,0,0.1-0.1,0.2-0.1l3.2,6.4c-1.6,0.6-3.2,1.2-4.8,1.7l-3.4-2.7l-1.8-1
					c-0.1-0.1-0.3-0.1-0.5,0c-0.9,0.5-1.8,0.7-2,0.6C55.5,4.3,55.4,4.2,55.5,3.9 M54.6,4.3c0,0.3,0.1,0.5,0.3,0.7
					c0.4,0.3,1,0.3,1.9,0c0.3-0.1,0.6-0.3,0.8-0.4l4.5,3.2c-4.1,1.5-7.6,2.7-9.4,3.4c-0.6-1.4-1.1-2.8-1.6-4.1
					c0.9-0.7,1.7-1.4,2.3-1.9C53.9,4.9,54.4,4.5,54.6,4.3 M44.9,52.3C44.9,52.3,44.9,52.3,44.9,52.3l-2.1,0.1l-0.1-2.6c0,0,0,0,0,0
					l-0.1-3.1l5.1,0.8c0.2,0,0.3,0,0.5-0.1c0.1-0.1,0.2-0.3,0.2-0.4l-0.2-4.7h0c0,0,0,0,0,0h0.3c0.3,0,0.6,0,1,0l-0.8,10
					c-0.1,0-0.2,0-0.2,0c0,0,0,0-0.1,0L44.9,52.3z M45.3,67.5c-0.7,0.1-1.4,0.2-2.2,0.3l-0.3-14.3l1.6,0L45.3,67.5z M8.6,68.2
					l0.2,0.9c-0.1,0-0.2,0.1-0.3,0.1c-2.5,1-3.8,0.8-4.5,0.5c-0.5-0.3-0.7-0.7-0.8-0.8c0.1-0.2,0.6-0.8,2.9-1.3
					c3.6-0.9,9.9-3.2,12.2-4c0.4,0.7,0.8,1.4,1.1,2c-1.9,0.5-5.8,1.6-9.6,3l-0.2-0.8c-0.1-0.3-0.4-0.5-0.7-0.4
					C8.7,67.6,8.6,67.9,8.6,68.2 M41,19.3c-0.2,0.1-0.3,0.3-0.3,0.5c0,0.1,0.1,0.2,0.2,0.3c0.1,0,0.2,0.1,0.3,0c0,0,0.1,0,0.1,0
					c0.2-0.1,2.3-0.8,3.4-1.5c0.2-0.1,0.3-0.4,0.1-0.6c-0.1-0.2-0.4-0.3-0.6-0.1c-0.2,0.1-0.5,0.3-0.8,0.4L42.9,17
					c1.3-0.5,2.5-1,3.6-1.4c0.5,1.6,1,3.9,1.5,6.5l-0.8,0.1c-0.4,0-3.8,0.3-6.3,1.5c-1.5,0.7-3.4,0.9-5.1,0.9
					c-0.1-0.1-0.2-0.1-0.3-0.1c-0.1,0-0.1,0-0.2,0.1c-0.9,0-1.7-0.1-2.3-0.1c-0.3,0-0.6,0-0.9-0.1c-1-0.1-1.7,0.2-2.1,0.5
					c-0.2-0.6-0.4-1.1-0.6-1.4c3.6-2.2,8.3-4.4,12.6-6.1l0.6,1.2L41,19.3z M44.4,40.5l-0.8-7.6l1.7-0.3l1.6,7.9l0,0.4l-2.6-0.1
					C44.4,40.7,44.4,40.6,44.4,40.5 M43.6,31.9l-0.8-7.8c0.3-0.1,0.6-0.2,0.9-0.2l1.5,7.8L43.6,31.9z M46.5,32.5l1.5-0.2h0
					c0.1,0,0.2-0.1,0.3-0.2c0.1-0.1,0.1-0.3,0.1-0.4L47,23.9c0-0.3-0.3-0.5-0.6-0.4c-0.3,0.1-0.5,0.3-0.4,0.6l1.4,7.2l-1.1,0.2
					l-1.5-7.8c1.4-0.3,2.5-0.3,2.5-0.3c0,0,0,0,0.1,0l0.8-0.1c0.6,3.3,1.3,6.8,1.8,9.9c0.2,1.3,0.4,2.5,0.6,3.5
					c0.2,1.1,0.4,2.7,0.7,4.4c-1.1,0-2.1,0-2.8,0h-0.3l-0.1,0l0-0.5c0,0,0,0,0-0.1l0,0v0c0,0,0,0,0,0L46.5,32.5z M26.4,52.1
					c0.2,0.2,0.6,0.2,0.8,0l1.1-1.2l0.5,0.2c0,0.1-0.1,0.2-0.1,0.3c-0.1,0.3-0.2,0.5-0.3,0.7c-0.7,1.9-0.1,5.6,0,5.9l0,0.4L26.4,59
					l-1.6-17.6l5.3,0.2c0.3,4.2-0.3,6.7-0.9,8.5l-0.8-0.4c-0.2-0.1-0.5,0-0.6,0.1l-1.3,1.5C26.2,51.6,26.2,51.9,26.4,52.1
					 M23.3,36.9c-0.1-0.3-0.5-0.4-0.8-0.2l-2,1.1l-2.6-5.4c1.4-1,2.9-2.2,4.6-3.5l2.6,4.1l1.3,4.3c0,0,0,0,0,0l0.9,3L21.7,40
					L21,38.8l2-1.1C23.4,37.6,23.5,37.2,23.3,36.9 M19.1,37.3l1.3,2.7l-4.6-0.2L19.1,37.3z M14.3,39.5L12.6,36
					c1.3-0.8,2.7-1.8,4.4-3l1.6,3.3L14.3,39.5z M31.2,41.6l3.8,0.1l0.6,8l-5.4,0.5C30.9,48.5,31.5,45.9,31.2,41.6 M28.5,40.3
					l-0.8-2.7l2.7-0.3l0.6,3.1l-0.3,0c0,0,0,0-0.1,0L28.5,40.3z M32.1,40.4l-0.6-3.2l1.9-0.2c0,0,0,0,0,0l2.8-0.3l0.4,3.9
					c0,0,0,0,0,0L32.1,40.4z M33.7,35.8c-0.7-1.6-3.1-7.4-3.3-9.2c0-0.2-0.1-0.4-0.1-0.5c0.2-0.2,0.7-0.7,1.8-0.6
					c0.2,0,0.5,0,0.9,0.1c0.6,0,1.3,0.1,2.1,0.1l1,9.9L33.7,35.8z M30.4,30.5c0.7,2,1.7,4.3,2.1,5.4l-5.2,0.6l-1.2-3.9
					c0,0,0,0,0-0.1L30.4,30.5z M25.5,31.5l-2.1-3.4c1-0.8,2-1.6,3-2.5c0.6-0.5,1.3-1,2-1.5c0.3,0.5,0.6,1.4,0.8,2.6
					c0.1,0.6,0.4,1.6,0.8,2.7L25.5,31.5z M29.4,52.5c0.1-0.2,0.2-0.4,0.3-0.7c0.1-0.1,0.1-0.2,0.2-0.4l6-0.6l0.4,3.4L29.1,55
					C29.1,54.1,29.2,53.1,29.4,52.5 M36.2,41.8l2.3,0.1l0.5,7.6l-2.2,0.2c0,0,0-0.1-0.1-0.1L36.2,41.8z M37.7,40.6
					c0-0.1,0-0.1,0-0.2l-1.6-14.7c1,0,2-0.1,3-0.3l2.1,15.3L37.7,40.6z M41.3,42l0.1,4c0,0,0,0,0,0l0.1,3.2l-1.4,0.1l-0.5-7.4
					L41.3,42z M41.3,32.2l-1-7.1c0.4-0.1,0.7-0.3,1-0.4c0.1-0.1,0.2-0.1,0.4-0.2l0.7,7.6L41.3,32.2z M29.3,21.2l-2.3-3.9
					c1.6-1,3.7-2.5,5.9-4.1l2.9,4.5C33.6,18.9,31.3,20,29.3,21.2 M28.4,21.8c-1.2,0.7-2.3,1.5-3.2,2.2c-3.5,2.9-6.4,5.2-8.9,7
					c-0.4-1.3-1.2-3.4-3.1-6.1c-0.3-0.4-0.5-0.8-0.7-1.1l12.2-5c0,0,0,0,0,0c0.3-0.2,0.8-0.4,1.4-0.8L28.4,21.8z M24.2,17.8L23.6,18
					l-1.3-5.2l2.1-0.8l1.4,4.8C25.1,17.3,24.6,17.6,24.2,17.8 M22.7,18.4l-10.8,4.4c-0.5-0.8-0.9-1.6-1.2-2.3l6.2-2.1l5.2-1.8
					L22.7,18.4z M19.4,16.7c-0.1-0.2-0.3-0.6-0.4-1.2c-0.1-0.4-0.2-0.9-0.3-1.4l2.1-0.7l0.6-0.2l0.7,2.6L19.4,16.7z M20.5,12.5
					l-2,0.7c-0.2-0.9-0.4-1.8-0.5-2.6l1.7-0.7l1.4,2.4L20.5,12.5z M18.1,15.6c0.1,0.6,0.3,1,0.4,1.3l-1.9,0.6l-6.3,2.1
					c-0.5-1.3-0.8-2.1-0.8-2.1c0,0,0-0.1,0-0.1c0,0,0-0.1-0.1-0.1l8.4-2.9C17.9,14.8,18,15.2,18.1,15.6 M9.1,16.5c0,0,0-0.1,0-0.1
					c-0.4-1-0.9-2.1-1.3-3.3l9.4-2.2c0.2,0.9,0.4,1.8,0.5,2.7L9.1,16.5z M7.5,12.3C6.7,10.2,6.1,8,6,5.9l10.1,0
					c0.1,0.7,0.5,2.3,0.9,4.1L7.5,12.3z M7.2,17.2c0.1,0.4,0.3,0.7,0.4,1c0.1,0.4,0.7,2.4,2.2,5L6,23.9c0,0,0,0,0,0l-6.6,1.2
					c-2.4-4.2-4.3-7.4-4.6-7.9c0-0.1-0.1-0.3-0.2-0.6L6.3,15C6.6,15.8,6.9,16.5,7.2,17.2 M5.8,25.1l3.5,7.1c0.1,0.2,0.4,0.4,0.6,0.3
					c0.1,0,0.1,0,0.2,0c0.3-0.1,0.4-0.5,0.3-0.8L7,24.9l3.4-0.6c0.3,0.6,0.7,1.2,1.1,1.8c2.1,3.1,2.8,5.4,3,6.2
					c-3.6,2.5-6.1,3.9-8.2,4.9C4.2,33.4,2,29.5,0,26.1L5.8,25.1z M11.5,36.6l1.9,4c0.1,0.2,0.3,0.4,0.5,0.4l2.2,0.1
					c0,0-0.1,0-0.1,0.1l-5.6,3.4c-1-1.7-2-3.6-3.1-5.6C8.6,38.3,9.9,37.6,11.5,36.6 M13.3,44.2l0.4,0.6c0.2,0.3,0.5,0.3,0.8,0.2
					c0.3-0.2,0.3-0.5,0.2-0.8l-0.4-0.6l2.4-1.4c0.3-0.2,0.4-0.5,0.2-0.8c-0.1-0.1-0.2-0.2-0.3-0.2l3.9,0.1l-8.1,6.7
					c-0.4-0.7-0.8-1.5-1.3-2.4L13.3,44.2z M11.2,50.1c0.7,1.3,1.2,2.2,1.5,2.9c1.3,2.8,3.1,5.9,4.6,8.6c0,0.1,0.1,0.2,0.1,0.2
					c-1.2,0.5-3.4,1.2-5.6,2l-0.3-1.2l3.3-1c0.2-0.1,0.3-0.2,0.4-0.3c0.1-0.1,0.1-0.3,0-0.5l-4.4-8.7c-0.1-0.1-0.2-0.2-0.3-0.3
					c-0.1,0-0.3,0-0.4,0c-0.1,0-0.6,0.3-1.4,0.8l-0.5-0.9C9.3,51,10.5,50.4,11.2,50.1 M10.5,63l0.3,1.3c-1.8,0.6-3.6,1.2-5,1.5
					c-0.4,0.1-0.7,0.2-1.1,0.3l-0.2-1.2L10.5,63z M4.4,63.7l-0.2-1.5l5.6-1.7l0.4,1.4L4.4,63.7z M10.6,59.1l-1.5-5.5
					c0.4-0.2,0.7-0.4,0.9-0.5l2.7,5.4L10.6,59.1z M13.3,59.5l0.6,1.2l-2.6,0.8l-0.4-1.3L13.3,59.5z M9.5,59.4L4,61l-0.6-4.3
					c0.6-0.2,1.7-0.6,2.9-1.5c0.6-0.4,1.2-0.8,1.8-1.1L9.5,59.4z M19.4,61.2c-0.1-0.2-0.2-0.4-0.3-0.6c-1.5-2.7-3.3-5.8-4.6-8.5
					c-0.3-0.7-0.9-1.8-1.6-3.2l9-7.4c0.1-0.1,0.1-0.2,0.2-0.2l1.5,0.1L24.8,54l-4.1,1.3c-0.3,0.1-0.5,0.4-0.4,0.7
					c0.1,0.3,0.4,0.5,0.7,0.4l3.8-1.2l0.4,4.3L19.4,61.2z M28.6,60.5l0.5,3.8l0.5,5.2c-0.8,0.1-1.6,0.2-2.3,0.4
					c-1,0.2-1.9,0.3-2.8,0.4c-0.3,0.1-0.6,0.1-1,0.2c-0.5-1.6-0.9-2.8-1-3.3c-0.1-0.3-0.2-0.7-0.5-1.2c0,0,0,0,0-0.1
					c-0.4-0.8-0.9-1.8-1.5-2.9L28.6,60.5z M29.4,58.2l0-0.2c0,0,0,0,0,0c-0.1-0.4-0.2-1-0.2-1.7l7.7-0.8c0.2,0,0.3-0.1,0.4-0.2
					c0.1-0.1,0.1-0.3,0.1-0.4L37,50.8l4.6-0.4l0.1,2.6c0,0,0,0,0,0c0,0,0,0,0,0l0.1,3c-0.1,0-0.2,0-0.3,0L29.4,58.2z M31.5,59.8
					l0.1,5.4c0,0.3,0.3,0.6,0.6,0.6c0,0,0.1,0,0.1,0c0.3,0,0.5-0.3,0.5-0.6l-0.1-5.6l2.6-0.5l0.1,3c0,0.3,0.3,0.6,0.6,0.5
					c0,0,0,0,0.1,0c0.3,0,0.5-0.3,0.5-0.6l-0.2-3.1l3-0.6l0.7,6.9c0,0.3,0.3,0.5,0.6,0.5c0,0,0,0,0,0c0.3,0,0.5-0.3,0.5-0.6l-0.7-7
					l1.3-0.2l0.2,10c-3.5,0.4-7.7,0.9-11.3,1.5l-0.5-5.2c0,0,0,0,0,0l-0.5-4L31.5,59.8z M41.4,33.2l1.1-0.2l0.7,7.6c0,0,0,0.1,0,0.1
					l-0.9,0c0,0,0,0,0,0L41.4,33.2z M44.1,42.1l0,1.2c0,0.2,0.2,0.4,0.5,0.4c0.2,0,0.4-0.2,0.4-0.5l0-1.2l2,0.1l0.2,4.1l-4.7-0.8
					L42.5,42L44.1,42.1z M48.7,53.4c1,0.1,3.1,0.2,4.3,0.2c0.2,1.4,0.4,2.9,0.6,4.3L48,58.3l-0.1-4.7L48.7,53.4z M49.6,52.3
					l0.8-10.1c0.3,0,0.7,0,1.1,0c0.2,1.6,0.5,3.4,0.7,5c0.2,1.3,0.4,2.6,0.5,3.9c0.1,0.4,0.1,0.9,0.2,1.3
					C52,52.4,50.6,52.3,49.6,52.3 M52.8,37.5c-0.1-0.5-0.2-0.9-0.2-1.3c0-0.1,0-0.1,0-0.2l5-1c0.1,0.6,0.2,1.1,0.2,1.6
					C56,37,54,37.3,52.8,37.5 M52.3,34.8c-0.1-0.7-0.2-1.4-0.4-2.2c-0.2-1-0.4-2.1-0.6-3.2l2.7-0.9c0.2-0.1,0.4-0.3,0.3-0.6
					c-0.1-0.2-0.3-0.4-0.6-0.3l-2.6,0.8c-0.1-0.6-0.2-1.3-0.3-1.9l5.3-0.9c0.3,1.7,0.5,3.6,0.9,5.9c0.1,0.8,0.2,1.6,0.3,2.3
					L52.3,34.8z M50.7,25.6c-0.2-0.9-0.3-1.8-0.5-2.7l5.4-0.8c0.2,0.8,0.3,1.7,0.5,2.6L50.7,25.6z M50,21.9
					c-0.2-1.2-0.5-2.4-0.7-3.4l4.5-2.1c0.6,1.5,1.1,2.9,1.5,4.7L50,21.9z M49,17.6c-0.2-1-0.5-1.9-0.7-2.6c1.8-0.7,3.3-1.2,4.2-1.5
					c0.3,0.7,0.6,1.4,0.9,2.1L49,17.6z M52,5C52,5,52,5,52,5l0.7-0.2c-0.5,0.4-1.1,1-1.9,1.5c-0.1-0.4-0.2-0.7-0.4-1L52,5z
					 M50.2,7.8c0.5,1.2,1,2.5,1.5,3.8c-0.9,0.3-2.3,0.8-4,1.4c-0.2-0.5-0.5-1.1-0.7-1.8c-0.2-0.4-0.4-0.9-0.6-1.3
					C47.8,9.3,49.1,8.6,50.2,7.8 M45.2,0.7c0.1,0,0.1,0,0.2,0l2.7-0.4c0.1,0.4,0.2,0.8,0.3,1.2c0.1,0.5,0.2,1,0.3,1.5
					c0.1,0.5,0.3,1.1,0.5,1.8l-2.7,1.9c-0.2,0.1-0.3,0.4-0.1,0.6c0.1,0.2,0.4,0.3,0.6,0.1l2.5-1.7c0.1,0.4,0.3,0.8,0.4,1.2
					c-1.1,0.8-2.4,1.5-3.8,2.1c-0.9-2.2-2-5-3-8.1L45.2,0.7z M42.8,6.1c0.9,2.3,1.7,4.2,2.3,5.8c0.3,0.7,0.5,1.2,0.7,1.7
					c-2.7,1-5.9,2.3-9.1,3.7l-3-4.7c0.5-0.3,0.9-0.6,1.3-1l1.9,2.9c0.1,0.1,0.2,0.2,0.4,0.2c0.1,0,0.3-0.1,0.4-0.2l2.9-3.7l1.7-1
					l0.3,0.5c0.1,0.2,0.4,0.3,0.6,0.1c0.2-0.1,0.3-0.4,0.1-0.6l-0.5-0.9c0,0-0.1-0.1-0.1-0.1l-1.2-1.9C42,6.7,42.4,6.4,42.8,6.1
					 M35.7,11.3c1.9-1.4,3.7-2.7,5.1-3.7l1,1.6L40,10.2c0,0-0.1,0.1-0.1,0.1l-2.6,3.3L35.7,11.3z M30.7,5.7c0.1,0,0.1,0,0.2,0l6.2,0
					c0.2,0,0.4-0.2,0.4-0.4c0-0.2-0.2-0.4-0.4-0.5c0,0-1,0-2.5-0.1L34,1.7l6.3,0L40.8,4c0,0.2,0.3,0.4,0.5,0.4s0.4-0.3,0.3-0.5
					l-0.4-1.9C41.6,3,42,4,42.4,5c-2.1,1.6-11,8.1-15.6,11.2l-1.2-4.4l3.2-0.1c0.2,0,0.4-0.2,0.4-0.4c0-0.2-0.2-0.4-0.5-0.4L25.2,11
					L24,6.5C25.1,6.1,27.5,5.8,30.7,5.7 M24.1,11.2L21.9,12l-1.4-2.4l1.1-0.4c0.2-0.1,0.3-0.2,0.3-0.4l0-1.3l1-0.5L24.1,11.2z
					 M19.5,5l2.7,1.3l-0.9,0.4C21.1,6.8,21,7,21,7.2l0,1.3l-1,0.4L19.6,8l-0.7-2.1L19.5,5z M17.5,4.1l1.1,0.6L18,5.4
					c-0.1,0.1-0.1,0.3-0.1,0.4l0.8,2.4c0,0,0,0.1,0,0.1l0.5,0.8l-1.4,0.6c-0.4-2-0.8-3.8-0.9-4.2L17.5,4.1z M6,4.6
					C6,4,6,3.3,6.1,2.4c3.8,0,7.3,0,8.1,0l2.6,1.3L16.2,5L6,5C6,4.8,6,4.7,6,4.6 M-0.5,2.4c1.3,0,2.9,0,4.5,0C4,3.2,4,3.9,4,4.5
					c0,0.4,0,0.7,0,1.1L-1,5.2L-0.5,2.4z M-5.9,8.6c0-0.3,0.1-0.7,0.1-1c0.3-2.1,0.4-3.5,0.1-4.8c0.5-0.3,1.1-0.5,1.7-0.5
					c0.3,0,1.2,0,2.5,0l-1.3,7.2c0,0.2,0.1,0.5,0.3,0.5c0.2,0.1,0.5-0.1,0.5-0.3L-1,6.1l5,0.4c0.2,2.6,1.1,5.4,2,7.7l-11.6,1.5
					C-5.9,14.2-6.3,11.9-5.9,8.6 M-5.2,27.3l0.5-0.2c0.3-0.1,0.5-0.4,0.4-0.7l-2.3-7.8c1.1,1.8,4.6,7.9,8.4,14.6l-2.8,1.5L-5.2,27.3
					z M-0.5,35.7l2.8-1.5c0.7,1.3,1.5,2.6,2.2,3.9c-1,0.5-1.9,1-2.8,1.5L-0.5,35.7z M-0.7,43.6c0.7-0.5,1.5-1,2.1-1.4
					c1.4-0.9,2.7-1.6,4.1-2.3c1.1,2,2.2,4,3.2,5.8l-3.7,2.3l-0.7-1.5c-0.1-0.3-0.5-0.4-0.8-0.3c-0.3,0.1-0.4,0.5-0.3,0.8l0.9,2.1
					c0.1,0.1,0.2,0.3,0.3,0.3c0.1,0,0.2,0,0.3,0c0.1,0,0.1,0,0.2-0.1l4.2-2.6c0.5,0.9,0.9,1.7,1.4,2.5c-1.3,0.6-4,1.9-5.8,3
					c-0.9,0.5-3.1,0.9-4.5,1.1c-0.4-2.4-0.9-4.6-1.2-5.7c-0.3-1.1-0.8-2.1-1.5-3C-1.8,44.2-1.2,43.9-0.7,43.6 M-0.1,66.4
					c-0.7,0.3-2.5,1-4.3,1.3c-0.3,0-0.5,0.1-0.7,0.1c-0.2,0-0.3,0-0.5,0c-0.5,0-0.8-0.1-0.9-0.1c-0.4-0.2-0.7-0.4-1-0.7l7.4-1.5
					C-0.1,65.9-0.1,66.2-0.1,66.4 M-9.8,35.9c-0.5-0.4-1-1-1.6-1.6l3.1-1.3l0.8,1.1L-9.8,35.9z M-6.3,40.3l-0.1-0.1
					C-6.6,40.1-6.8,40-7,39.9l0-0.5c0-1-0.7-1.5-1.8-2.5c-0.1,0-0.1-0.1-0.2-0.1l2.1-1.6L-2,42c-0.5,0.3-1,0.7-1.5,1
					C-4.6,41.8-5.7,40.8-6.3,40.3 M-9.9,70c0,0.6-0.1,2.2,0,3.9l-0.1,0l-1.2-6.3l1.6-0.1c0.2,0.4,0.5,0.8,0.8,1.1
					C-9.4,68.8-9.9,69.3-9.9,70 M-8,65.9c-0.1-0.7-0.3-1.6-0.5-2.5l6.4-1.1c0.3-0.1,0.5-0.3,0.5-0.7c-0.1-0.3-0.4-0.5-0.7-0.5
					l-6.5,1.1c-1-4.2-2.6-9.1-3.5-10.9c-0.2-0.4-0.4-0.7-0.6-1c2.4-0.9,5.4-2.6,8.9-4.8c0.5,0.8,1,1.6,1.2,2.4
					c0.2,0.6,0.4,1.8,0.7,3.2l-2,0.6l-0.3-1.5C-4.4,50.1-4.7,49.9-5,50c-0.3,0.1-0.5,0.4-0.5,0.7l0.4,2.1c0,0.2,0.1,0.3,0.3,0.4
					c0.1,0.1,0.3,0.1,0.4,0.1c0,0,0,0,0.1,0l2.5-0.8c0.3,1.6,0.6,3.5,0.9,5.5c0.5,3,0.7,5,0.8,6.4L-8,65.9C-7.9,65.9-8,65.9-8,65.9
					 M-0.5,78.8c-0.3,0.4-0.6,0.9-0.9,1.3c-0.1,0.2-0.3,0.4-0.4,0.6c-0.2-0.3-0.5-0.6-0.7-0.8c-0.2-0.3-0.5-0.6-0.8-0.8
					c1.2-0.5,2.4-1,3.1-1c0,0,0.1,0,0.2,0C-0.1,78.3-0.3,78.5-0.5,78.8 M1.1,76.1c-0.5,0-0.9,0-1.1,0c-1.7-0.1-4.2,1.2-5.3,1.8
					c-0.4-0.2-1-0.6-1.7-1.4c-0.6-0.7-0.9-3.7-0.8-6.2c0.4-0.2,1.2-0.3,2.3-0.4c0.2,0,0.4,0,0.6,0c1,0,2.1,0,3.3,0.2
					c2.1,0.3,2.9,0.7,3.1,0.9C1.6,72.3,1.8,74.1,1.1,76.1 M1.5,68.1c-0.1,0.2-0.1,0.4-0.2,0.5c-0.3-0.1-0.6-0.2-0.9-0.3
					c0.9-0.4,1-0.6,1.1-0.8c0.3-0.4,0.8-1.2-0.5-9.6c-0.2-1.2-0.4-2.4-0.6-3.6c1.3-0.2,3.8-0.6,4.9-1.3c0.5-0.3,1.1-0.6,1.7-1l0.5,1
					c-0.7,0.4-1.4,0.8-2,1.2c-1.6,1.1-3,1.4-3,1.4c-0.3,0.1-0.5,0.3-0.5,0.6l1.5,10C2.6,66.9,1.8,67.4,1.5,68.1 M11.3,73.6
					c-1.9,1.2-5.4,1.9-8,2.2c0.4-1.6,0.4-3,0.3-4.1c0.9,0.3,1.9,0.4,3.1,0.2c0.8-0.1,1.7-0.4,2.7-0.8c4.4-1.8,9.2-3.1,11.1-3.6
					c0,0,0,0.1,0,0.1c0.1,0.4,0.5,1.6,0.9,3.1C17,71.5,13.8,72.1,11.3,73.6 M22.8,85l-2.4-7.6l1.8-1.1c0.3-0.2,0.4-0.5,0.2-0.8
					c-0.2-0.3-0.5-0.4-0.8-0.2l-1.6,0.9l-1-3.1C20,73,21,72.9,22,72.7c1.1,3.5,2.6,8,3.6,11.1C24.6,84.2,23.6,84.7,22.8,85
					 M27.8,82.8c-0.1,0-0.2,0.1-0.3,0.2c-1-3-2.3-7.2-3.4-10.6c0.2,0,0.4-0.1,0.7-0.1c0.5-0.1,1.1-0.2,1.7-0.3l2.6,10.3
					C28.5,82.4,28.2,82.6,27.8,82.8 M30,81.9l-2.5-10.1c1.5-0.2,3.3-0.5,5.2-0.7l0.6,1.6L31.2,73c-0.3,0.1-0.5,0.3-0.5,0.6
					c0,0.3,0.3,0.5,0.6,0.5l2.8-0.4c0,0,0,0,0,0l1.7-0.2l0.8,4.3l-5,0.8l0,0c-0.3,0.1-0.5,0.3-0.5,0.7c0.1,0.3,0.3,0.5,0.7,0.5
					l2.4-0.4l0.3,1.8C33,81.2,31.5,81.4,30,81.9 M55.8,69.8c0.2,0.9,0.4,1.7,0.6,2.5l-4.7,0.7L48.2,73c-0.3,0-0.6,0.3-0.6,0.6
					c0,0.3,0.3,0.6,0.6,0.6l3.4-0.1c0,0,0,0,0.1,0l4.9-0.7c0.7,2.8,1.3,5.2,1.6,6.6c-3.1,0.5-6.2,0.7-7.8,0.7c0,0-0.1,0-0.1,0
					c-0.1,0-8,0.7-12.5,0.4c-0.7,0-1.4-0.1-2-0.1l-0.3-1.9l2-0.3h0c0.1,0,0.3-0.1,0.4-0.2c0.1-0.1,0.1-0.3,0.1-0.4l-1-5.4
					c-0.1-0.3-0.3-0.5-0.6-0.5l-1.8,0.3l-0.6-1.6c2.7-0.4,5.6-0.7,8.1-1l0,0.9l-3.2,0.1c-0.2,0-0.3,0.1-0.4,0.2
					c-0.1,0.1-0.2,0.3-0.1,0.4l0.1,1.3c0,0.3,0.3,0.5,0.6,0.5c0,0,0,0,0,0c0.3,0,0.5-0.3,0.5-0.6L39.5,72l3.2-0.1
					c0.2,0,0.3-0.1,0.4-0.2c0.1-0.1,0.2-0.3,0.2-0.4l0-1.5c2.9-0.3,5.1-0.6,5.7-0.7C51.2,69.5,53.4,69.7,55.8,69.8 M55.3,67.7
					c-2.2-0.1-4.1-0.3-6.3-0.6c-0.1,0-0.2,0-0.3,0c0,0-0.9,0.1-2.3,0.3l-1-13.9l1.5,0l0.1,5.4c0,0.1,0.1,0.2,0.1,0.3
					c0.1,0.1,0.2,0.1,0.3,0.1l6.2-0.5c0.2,1.4,0.4,2.7,0.6,3.9C54.7,64.3,55,66,55.3,67.7 M55.3,49.9l-0.4,0l-0.6-2
					c0-0.2-0.1-0.4-0.1-0.6l1.1-0.1L55.3,49.9z M55.3,46.2l-1.2,0.1c-0.2-1.4-0.4-2.8-0.6-4.1c0.6,0,1.2,0,1.9,0L55.3,46.2z
					 M53.3,41c-0.1-0.9-0.3-1.8-0.4-2.6c1.2-0.2,3.2-0.6,5-0.9c0.2,1.5,0.4,2.6,0.6,3.5C56.6,41,54.9,41,53.3,41 M57.3,42.8
					c-0.2,0-0.4,0.2-0.4,0.5c0,0,0,0.6,0.1,2.6c0,0.5-0.1,0.7-0.1,0.7c-0.1,0-0.2,0-0.5-0.1l0.1-4.2c0.7,0,1.5,0,2.3,0.1
					c0,0.1,0,0.1,0,0.2L57.3,42.8z M58.5,34.8l7-1.3c0.2,0.7,0.5,1.9,0.8,3.4c-0.3,0-0.5,0-0.7,0c-0.5,0-1.1-0.1-1.7-0.3
					c-1.1-0.2-2.3-0.5-3.6-0.3c-0.4,0.1-0.9,0.1-1.6,0.3C58.7,36,58.6,35.4,58.5,34.8 M61.9,41.2l0-0.3l1.3,0l0,0.4
					C62.7,41.2,62.3,41.2,61.9,41.2 M66.6,41.4L66.6,41.4c-0.9,0-1.8-0.1-2.8-0.2l0-0.8c0-0.1,0-0.2-0.1-0.2
					c-0.1-0.1-0.1-0.1-0.2-0.1l-1.9,0c-0.2,0-0.3,0.1-0.3,0.3l0,0.6c-0.6,0-1.2,0-1.8-0.1c-0.2-0.9-0.4-2.1-0.6-3.7
					c0.6-0.1,1.2-0.2,1.6-0.3c1.2-0.2,2.2,0.1,3.3,0.3c0.7,0.1,1.3,0.3,1.9,0.3c0.2,0,0.5,0,0.9,0.1C66.9,39.6,66.7,41,66.6,41.4
					 M73.3,42.2c-1.7-0.3-3.7-0.5-5.8-0.7c0.1-0.6,0.3-1.9,0-3.6c0.6,0.1,1.3,0.2,2,0.3c1.6,0.2,3,0.4,4,0.5
					C73.5,40.5,73.4,41.6,73.3,42.2 M73.5,37.7c-1.3-0.1-2.8-0.3-3.9-0.5c-0.9-0.1-1.7-0.2-2.3-0.3c-0.4-1.5-0.7-2.8-0.9-3.6
					l6.8-1.3C73.4,34.4,73.5,36.3,73.5,37.7 M73,30.9l-7.1,1.4c-0.1,0-0.2-0.1-0.3,0c-0.1,0-0.2,0.1-0.2,0.1l-7,1.3
					c-0.1-0.7-0.2-1.5-0.3-2.3c-0.2-1.2-0.3-2.3-0.5-3.3c5.1-0.8,12.8-2.1,15-2.2C72.8,27.5,72.9,29.2,73,30.9 M72.5,24.8
					C69.4,25,60,26.6,57.4,27c-0.1-0.5-0.2-1-0.2-1.5l3.6-0.6c0,0,0,0,0,0l5.9-1.4c0.2,0,3.5-0.6,5.6-0.7
					C72.3,23.5,72.4,24.1,72.5,24.8 M72.1,21.8c-2.2,0-5.5,0.6-5.7,0.7c0,0,0,0,0,0l-5.9,1.4L57,24.5c-0.2-0.9-0.3-1.8-0.5-2.6
					l5.2-0.8c0,0,0,0,0,0c0.1,0,6.7-1.4,10-1.8C71.9,20.1,72,21,72.1,21.8 M71.6,18.3c-3.3,0.3-9.6,1.7-10,1.8l-5.3,0.8
					c-0.4-1.9-0.9-3.4-1.6-5l-0.2-0.5c-0.3-0.7-0.6-1.5-1-2.3c2-0.7,5.8-2.1,10.2-3.7l1.1,1.8c0.1,0.2,0.3,0.2,0.4,0.2
					c0.1,0,0.1,0,0.2-0.1c0.2-0.1,0.3-0.4,0.1-0.6l-1-1.6c1.5-0.5,3.1-1.1,4.7-1.7c0.2,0.5,0.4,1.6,0.8,3.2L69.4,11L68,11.6
					c-0.1,0-0.2,0.1-0.2,0.2c0,0.1,0,0.2,0,0.3l0.7,1.7l0.2,0.7c0.1,0.2,0.3,0.3,0.5,0.3c0,0,0,0,0.1,0c0.2-0.1,0.4-0.3,0.3-0.6
					l-0.2-0.7c0,0,0,0,0-0.1l-0.6-1.3l1-0.4l0.6-0.3C70.7,13.3,71.2,15.6,71.6,18.3"/>
			</g>
		</g>
		<g>
			<path class="st17" d="M54.4,33.5c-5.3,4.5-27.9,6.7-27.9,6.7s6.1-21.4,11.4-26c5.3-4.5,13.3-3.9,17.9,1.4
				C60.3,21,59.7,29,54.4,33.5"/>
			<path class="st18" d="M42.1,17.7c3.1-2.6,7.8-2.1,10.3,1.1c2.6,3.1,2.1,7.8-1.1,10.3c-3.1,2.6-7.8,2.1-10.3-1.1
				C38.4,24.9,38.9,20.3,42.1,17.7"/>
			<path class="st19" d="M135,39.7v-6.1c0-0.1-0.1-0.2-0.1-0.3c-0.1-0.1-0.2-0.1-0.3-0.1h-0.1c-0.1,0-0.2,0-0.2,0.1
				c-0.1,0.1-0.2,0.1-0.2,0.2l-0.3,0.7c-0.1,0.2-0.2,0.4-0.3,0.6c-0.1,0.3-0.3,0.6-0.4,0.9c-0.2,0.4-0.4,0.8-0.6,1.3
				c-0.2,0.5-0.5,1.1-0.8,1.8c-0.1,0.1-0.1,0.2-0.2,0.3c-0.1,0.1-0.1,0.2-0.2,0.3c-0.1,0.1-0.2,0.1-0.3,0.2
				c-0.1,0.1-0.2,0.1-0.3,0.1h-0.2c-0.3,0-0.5-0.1-0.6-0.2c-0.1-0.1-0.3-0.3-0.4-0.6l-2.5-5.3c0-0.1-0.1-0.2-0.1-0.2
				c0,0-0.1-0.1-0.1-0.1c0,0-0.1,0-0.2,0h-0.1c-0.1,0-0.2,0-0.3,0.1c-0.1,0.1-0.1,0.2-0.1,0.2v6.1h-1.2v-6.2c0-0.2,0-0.4,0.1-0.6
				c0.1-0.2,0.2-0.3,0.3-0.5c0.1-0.1,0.3-0.3,0.5-0.3c0.2-0.1,0.4-0.1,0.6-0.2l0.2,0c0.2,0,0.4,0,0.6,0.1c0.1,0,0.2,0.1,0.3,0.1
				c0.1,0.1,0.2,0.1,0.3,0.2c0.1,0.1,0.2,0.2,0.2,0.3c0.1,0.1,0.1,0.2,0.1,0.2l0.1,0.1c0.4,0.9,0.8,1.8,1.3,2.6
				c0.4,0.9,0.8,1.8,1.3,2.6l0,0L133,33c0.1-0.2,0.2-0.3,0.3-0.5c0.1-0.2,0.3-0.3,0.5-0.4c0.1-0.1,0.2-0.1,0.3-0.1
				c0.1,0,0.3-0.1,0.4-0.1l0.2,0c0.2,0,0.4,0,0.6,0.1c0.2,0.1,0.4,0.2,0.5,0.4c0.1,0.1,0.3,0.3,0.4,0.5c0.1,0.2,0.1,0.4,0.1,0.5v6.2
				L135,39.7L135,39.7z"/>
			<path class="st19" d="M142,39.7c-0.4,0-0.9-0.1-1.3-0.2c-0.4-0.2-0.7-0.4-1-0.7c-0.3-0.3-0.5-0.6-0.7-1c-0.2-0.4-0.2-0.8-0.2-1.3
				v-1.3c0-0.4,0.1-0.8,0.2-1.2c0.2-0.4,0.4-0.7,0.7-1c0.3-0.3,0.6-0.5,1-0.7c0.4-0.2,0.8-0.3,1.3-0.3h5.4c0.4,0,0.9,0.1,1.3,0.3
				c0.4,0.2,0.7,0.4,1,0.7c0.3,0.3,0.5,0.6,0.7,1c0.2,0.4,0.2,0.8,0.2,1.2v1.3c0,0.4-0.1,0.9-0.2,1.3c-0.2,0.4-0.4,0.7-0.7,1
				c-0.3,0.3-0.6,0.5-1,0.7c-0.4,0.2-0.8,0.2-1.3,0.2L142,39.7L142,39.7z M140,36.5c0,0.3,0.1,0.5,0.2,0.8c0.1,0.2,0.2,0.5,0.4,0.6
				c0.2,0.2,0.4,0.3,0.6,0.4c0.2,0.1,0.5,0.2,0.8,0.2h5.4c0.3,0,0.5,0,0.8-0.2c0.2-0.1,0.4-0.2,0.6-0.4c0.2-0.2,0.3-0.4,0.4-0.6
				c0.1-0.2,0.2-0.5,0.2-0.8v-1.3c0-0.3-0.1-0.5-0.2-0.8c-0.1-0.2-0.2-0.5-0.4-0.6c-0.2-0.2-0.4-0.3-0.6-0.4
				c-0.2-0.1-0.5-0.2-0.8-0.2H142c-0.3,0-0.5,0.1-0.8,0.2c-0.2,0.1-0.5,0.2-0.6,0.4c-0.2,0.2-0.3,0.4-0.4,0.6
				c-0.1,0.2-0.2,0.5-0.2,0.8V36.5z"/>
			<path class="st19" d="M160.8,39.6c-0.1,0-0.2-0.1-0.3-0.2c-0.1-0.1-0.2-0.2-0.3-0.3c-0.4-0.5-0.8-0.9-1.2-1.4
				c-0.4-0.5-0.9-1-1.3-1.5c-0.4-0.5-0.9-1-1.3-1.5c-0.4-0.5-0.8-1-1.2-1.4c-0.1-0.1-0.2-0.1-0.3-0.1c-0.1,0-0.2,0-0.3,0.1
				c-0.1,0.1-0.1,0.1-0.1,0.3v6.2h-1.2v-6.3l0,0c0-0.2,0.1-0.4,0.2-0.6c0.1-0.2,0.2-0.3,0.4-0.5c0.2-0.1,0.3-0.2,0.5-0.3
				c0.2-0.1,0.4-0.1,0.6-0.1c0.2,0,0.5,0,0.7,0.1c0.2,0.1,0.4,0.2,0.6,0.5c0.8,1,1.7,2,2.5,2.9c0.8,1,1.7,2,2.5,3
				c0,0,0.1,0.1,0.1,0.1c0.1,0,0.1,0,0.2,0c0.1,0,0.2,0,0.3-0.1c0.1-0.1,0.1-0.2,0.2-0.3V32h1.2v6.3c0,0.2-0.1,0.4-0.2,0.6
				c-0.1,0.2-0.2,0.3-0.4,0.5c-0.2,0.1-0.3,0.2-0.5,0.3c-0.2,0.1-0.4,0.1-0.6,0.1c-0.1,0-0.2,0-0.3,0
				C161,39.7,160.9,39.7,160.8,39.6"/>
			<rect x="165.8" y="32" class="st19" width="1.2" height="7.7"/>
			<polygon class="st19" points="178.8,33.2 174.6,33.2 174.6,39.7 173.4,39.7 173.4,33.2 169.3,33.2 169.3,32 178.8,32 			"/>
			<path class="st19" d="M183.6,39.7c-0.4,0-0.9-0.1-1.3-0.2c-0.4-0.2-0.7-0.4-1-0.7c-0.3-0.3-0.5-0.6-0.7-1
				c-0.2-0.4-0.2-0.8-0.2-1.3v-1.3c0-0.4,0.1-0.8,0.2-1.2c0.2-0.4,0.4-0.7,0.7-1c0.3-0.3,0.6-0.5,1-0.7c0.4-0.2,0.8-0.3,1.3-0.3h5.4
				c0.4,0,0.9,0.1,1.3,0.3c0.4,0.2,0.7,0.4,1,0.7c0.3,0.3,0.5,0.6,0.7,1c0.2,0.4,0.2,0.8,0.2,1.2v1.3c0,0.4-0.1,0.9-0.2,1.3
				c-0.2,0.4-0.4,0.7-0.7,1c-0.3,0.3-0.6,0.5-1,0.7c-0.4,0.2-0.8,0.2-1.3,0.2L183.6,39.7L183.6,39.7z M181.6,36.5
				c0,0.3,0.1,0.5,0.2,0.8c0.1,0.2,0.2,0.5,0.4,0.6c0.2,0.2,0.4,0.3,0.6,0.4c0.2,0.1,0.5,0.2,0.8,0.2h5.4c0.3,0,0.5,0,0.8-0.2
				c0.2-0.1,0.5-0.2,0.6-0.4c0.2-0.2,0.3-0.4,0.4-0.6c0.1-0.2,0.2-0.5,0.2-0.8v-1.3c0-0.3-0.1-0.5-0.2-0.8c-0.1-0.2-0.2-0.5-0.4-0.6
				c-0.2-0.2-0.4-0.3-0.6-0.4c-0.2-0.1-0.5-0.2-0.8-0.2h-5.4c-0.3,0-0.5,0.1-0.8,0.2c-0.2,0.1-0.5,0.2-0.6,0.4
				c-0.2,0.2-0.3,0.4-0.4,0.6c-0.1,0.2-0.2,0.5-0.2,0.8V36.5z"/>
			<path class="st19" d="M204.3,36.2c-0.1,0.1-0.3,0.3-0.5,0.4c-0.2,0.1-0.4,0.2-0.6,0.2c0.2,0.2,0.3,0.5,0.5,0.7
				c0.2,0.3,0.4,0.5,0.6,0.8c0.2,0.3,0.4,0.5,0.6,0.8c0.2,0.2,0.4,0.5,0.5,0.7h-1.5l-2.1-2.8h-5.9v2.8h-1.2V32h7.8
				c0.5,0,1,0.1,1.4,0.4c0.3,0.2,0.6,0.5,0.8,0.9c0.2,0.4,0.3,0.8,0.3,1.2c0,0.3-0.1,0.7-0.2,1C204.7,35.7,204.5,35.9,204.3,36.2
				L204.3,36.2L204.3,36.2z M195.9,35.6h6.6c0.2,0,0.3,0,0.5-0.1c0.2-0.1,0.3-0.2,0.4-0.3c0.1-0.1,0.2-0.2,0.3-0.4
				c0.1-0.1,0.1-0.3,0.1-0.5c0-0.2,0-0.3-0.1-0.5c-0.1-0.1-0.2-0.3-0.3-0.4c-0.1-0.1-0.3-0.2-0.4-0.3c-0.2-0.1-0.3-0.1-0.5-0.1h-6.6
				L195.9,35.6L195.9,35.6z"/>
			<path class="st19" d="M209.1,33.8c-0.2,0.2-0.3,0.4-0.4,0.6c-0.1,0.2-0.2,0.5-0.2,0.8v0.1h8.3v1.2h-8.3v0.1c0,0.3,0,0.5,0.2,0.8
				c0.1,0.2,0.2,0.4,0.4,0.6c0.2,0.2,0.4,0.3,0.6,0.4c0.2,0.1,0.5,0.2,0.8,0.2h6.4v1.2h-6.4c-0.4,0-0.9-0.1-1.3-0.3
				c-0.4-0.2-0.7-0.4-1-0.7c-0.3-0.3-0.5-0.6-0.7-1c-0.2-0.4-0.2-0.8-0.2-1.2v-1.3c0-0.4,0.1-0.9,0.3-1.2c0.2-0.4,0.4-0.7,0.7-1
				c0.3-0.3,0.6-0.5,1-0.7c0.4-0.2,0.8-0.3,1.2-0.3h6.4v1.2h-6.4c-0.3,0-0.5,0.1-0.8,0.2C209.5,33.5,209.3,33.6,209.1,33.8"/>
			<path class="st19" d="M222.9,39.7c-0.4,0-0.9-0.1-1.3-0.2c-0.4-0.2-0.7-0.4-1-0.7c-0.3-0.3-0.5-0.6-0.7-1
				c-0.2-0.4-0.2-0.8-0.2-1.3v-1.3c0-0.4,0.1-0.8,0.2-1.2c0.2-0.4,0.4-0.7,0.7-1c0.3-0.3,0.6-0.5,1-0.7c0.4-0.2,0.8-0.3,1.3-0.3h5.4
				c0.4,0,0.9,0.1,1.3,0.3c0.4,0.2,0.7,0.4,1,0.7c0.3,0.3,0.5,0.6,0.7,1c0.2,0.4,0.2,0.8,0.2,1.2v1.3c0,0.4-0.1,0.9-0.2,1.3
				c-0.2,0.4-0.4,0.7-0.7,1c-0.3,0.3-0.6,0.5-1,0.7c-0.4,0.2-0.8,0.2-1.3,0.2L222.9,39.7L222.9,39.7z M220.9,36.5
				c0,0.3,0.1,0.5,0.2,0.8s0.2,0.5,0.4,0.6c0.2,0.2,0.4,0.3,0.6,0.4c0.2,0.1,0.5,0.2,0.8,0.2h5.4c0.3,0,0.5,0,0.8-0.2
				c0.2-0.1,0.5-0.2,0.6-0.4c0.2-0.2,0.3-0.4,0.4-0.6c0.1-0.2,0.2-0.5,0.2-0.8v-1.3c0-0.3,0-0.5-0.2-0.8c-0.1-0.2-0.2-0.5-0.4-0.6
				c-0.2-0.2-0.4-0.3-0.6-0.4c-0.2-0.1-0.5-0.2-0.8-0.2h-5.4c-0.3,0-0.5,0.1-0.8,0.2c-0.2,0.1-0.4,0.2-0.6,0.4
				c-0.2,0.2-0.3,0.4-0.4,0.6c-0.1,0.2-0.2,0.5-0.2,0.8V36.5z"/>
			<path class="st20" d="M73.5,40.1c-0.6,0-1.2-0.1-1.7-0.4c-0.5-0.2-1-0.6-1.4-1c-0.4-0.4-0.7-0.9-1-1.4c-0.2-0.6-0.4-1.1-0.4-1.8
				v-1.9c0-0.6,0.1-1.2,0.4-1.8c0.2-0.5,0.6-1,1-1.4c0.4-0.4,0.9-0.7,1.4-1c0.5-0.2,1.1-0.4,1.8-0.4h6.6v1.7h-6.6
				c-0.4,0-0.7,0.1-1.1,0.2c-0.3,0.1-0.6,0.3-0.9,0.6c-0.3,0.3-0.5,0.5-0.6,0.9c-0.2,0.3-0.2,0.7-0.2,1.1v1.9c0,0.4,0.1,0.7,0.2,1.1
				c0.1,0.3,0.3,0.6,0.6,0.9c0.3,0.3,0.5,0.5,0.9,0.6c0.3,0.1,0.7,0.2,1.1,0.2h5.1c0.4,0,0.7-0.1,1.1-0.2c0.3-0.1,0.6-0.3,0.9-0.6
				c0.3-0.2,0.5-0.5,0.6-0.9c0.2-0.3,0.2-0.7,0.2-1.1v-0.1h-4.7v-1.7h6.4v1.8c0,0.6-0.1,1.2-0.4,1.8c-0.2,0.6-0.6,1-1,1.4
				c-0.4,0.4-0.9,0.7-1.4,1c-0.6,0.2-1.1,0.4-1.8,0.4L73.5,40.1L73.5,40.1z"/>
			<path class="st20" d="M73.5,40.1c-0.6,0-1.2-0.1-1.7-0.4c-0.5-0.2-1-0.6-1.4-1c-0.4-0.4-0.7-0.9-1-1.4c-0.2-0.6-0.4-1.1-0.4-1.8
				v-1.9c0-0.6,0.1-1.2,0.4-1.8c0.2-0.5,0.6-1,1-1.4c0.4-0.4,0.9-0.7,1.4-1c0.5-0.2,1.1-0.4,1.8-0.4h6.6v1.7h-6.6
				c-0.4,0-0.7,0.1-1.1,0.2c-0.3,0.1-0.6,0.3-0.9,0.6c-0.3,0.3-0.5,0.5-0.6,0.9c-0.2,0.3-0.2,0.7-0.2,1.1v1.9c0,0.4,0.1,0.7,0.2,1.1
				c0.1,0.3,0.3,0.6,0.6,0.9c0.3,0.3,0.5,0.5,0.9,0.6c0.3,0.1,0.7,0.2,1.1,0.2h5.1c0.4,0,0.7-0.1,1.1-0.2c0.3-0.1,0.6-0.3,0.9-0.6
				c0.3-0.2,0.5-0.5,0.6-0.9c0.2-0.3,0.2-0.7,0.2-1.1v-0.1h-4.7v-1.7h6.4v1.8c0,0.6-0.1,1.2-0.4,1.8c-0.2,0.6-0.6,1-1,1.4
				c-0.4,0.4-0.9,0.7-1.4,1c-0.6,0.2-1.1,0.4-1.8,0.4L73.5,40.1L73.5,40.1z"/>
			<path class="st20" d="M89.2,31.7c-0.2,0.3-0.5,0.6-0.6,0.9c-0.1,0.3-0.2,0.7-0.2,1.1v0.1h11.8v1.7H88.4v0.1
				c0,0.4,0.1,0.7,0.2,1.1c0.1,0.3,0.3,0.6,0.6,0.9c0.3,0.3,0.6,0.5,0.9,0.6c0.3,0.1,0.7,0.2,1.1,0.2h9v1.7h-9
				c-0.6,0-1.2-0.1-1.8-0.4c-0.6-0.2-1-0.6-1.4-1c-0.4-0.4-0.7-0.9-1-1.4c-0.2-0.6-0.4-1.1-0.4-1.8v-1.9c0-0.6,0.1-1.2,0.4-1.8
				c0.2-0.5,0.6-1,1-1.4c0.4-0.4,0.9-0.7,1.4-1c0.6-0.2,1.1-0.4,1.8-0.4h9v1.7h-9c-0.4,0-0.8,0.1-1.1,0.2
				C89.7,31.3,89.4,31.5,89.2,31.7"/>
			<path class="st20" d="M89.2,31.7c-0.2,0.3-0.5,0.6-0.6,0.9c-0.1,0.3-0.2,0.7-0.2,1.1v0.1h11.8v1.7H88.4v0.1
				c0,0.4,0.1,0.7,0.2,1.1c0.1,0.3,0.3,0.6,0.6,0.9c0.3,0.3,0.6,0.5,0.9,0.6c0.3,0.1,0.7,0.2,1.1,0.2h9v1.7h-9
				c-0.6,0-1.2-0.1-1.8-0.4c-0.6-0.2-1-0.6-1.4-1c-0.4-0.4-0.7-0.9-1-1.4c-0.2-0.6-0.4-1.1-0.4-1.8v-1.9c0-0.6,0.1-1.2,0.4-1.8
				c0.2-0.5,0.6-1,1-1.4c0.4-0.4,0.9-0.7,1.4-1c0.6-0.2,1.1-0.4,1.8-0.4h9v1.7h-9c-0.4,0-0.8,0.1-1.1,0.2
				C89.7,31.3,89.4,31.5,89.2,31.7z"/>
			<path class="st20" d="M108.7,40.1c-0.6,0-1.2-0.1-1.8-0.4c-0.6-0.2-1-0.6-1.4-1c-0.4-0.4-0.7-0.9-1-1.4c-0.2-0.6-0.4-1.1-0.4-1.8
				v-1.9c0-0.6,0.1-1.2,0.4-1.8c0.2-0.6,0.6-1,1-1.4c0.4-0.4,0.9-0.7,1.4-1c0.6-0.2,1.1-0.4,1.8-0.4h7.6c0.6,0,1.2,0.1,1.8,0.4
				c0.6,0.2,1,0.6,1.4,1c0.4,0.4,0.7,0.9,1,1.4c0.2,0.6,0.4,1.1,0.4,1.8v1.9c0,0.6-0.1,1.2-0.4,1.8c-0.2,0.5-0.6,1-1,1.4
				c-0.4,0.4-0.9,0.7-1.4,1c-0.6,0.2-1.1,0.4-1.8,0.4H108.7z M105.9,35.6c0,0.4,0.1,0.8,0.2,1.1c0.1,0.3,0.3,0.6,0.6,0.9
				c0.3,0.3,0.6,0.5,0.9,0.6c0.3,0.1,0.7,0.2,1.1,0.2h7.6c0.4,0,0.8-0.1,1.1-0.2c0.3-0.1,0.6-0.3,0.9-0.6c0.3-0.3,0.5-0.5,0.6-0.9
				c0.1-0.3,0.2-0.7,0.2-1.1v-1.9c0-0.4-0.1-0.7-0.2-1.1c-0.1-0.3-0.3-0.6-0.6-0.9c-0.3-0.3-0.6-0.5-0.9-0.6
				c-0.3-0.1-0.7-0.2-1.1-0.2h-7.6c-0.4,0-0.8,0.1-1.1,0.2c-0.3,0.1-0.6,0.3-0.9,0.6c-0.3,0.3-0.5,0.6-0.6,0.9
				c-0.1,0.3-0.2,0.7-0.2,1.1V35.6z"/>
			<path class="st20" d="M108.7,40.1c-0.6,0-1.2-0.1-1.8-0.4c-0.6-0.2-1-0.6-1.4-1c-0.4-0.4-0.7-0.9-1-1.4c-0.2-0.6-0.4-1.1-0.4-1.8
				v-1.9c0-0.6,0.1-1.2,0.4-1.8c0.2-0.6,0.6-1,1-1.4c0.4-0.4,0.9-0.7,1.4-1c0.6-0.2,1.1-0.4,1.8-0.4h7.6c0.6,0,1.2,0.1,1.8,0.4
				c0.6,0.2,1,0.6,1.4,1c0.4,0.4,0.7,0.9,1,1.4c0.2,0.6,0.4,1.1,0.4,1.8v1.9c0,0.6-0.1,1.2-0.4,1.8c-0.2,0.5-0.6,1-1,1.4
				c-0.4,0.4-0.9,0.7-1.4,1c-0.6,0.2-1.1,0.4-1.8,0.4H108.7z M105.9,35.6c0,0.4,0.1,0.8,0.2,1.1c0.1,0.3,0.3,0.6,0.6,0.9
				c0.3,0.3,0.6,0.5,0.9,0.6c0.3,0.1,0.7,0.2,1.1,0.2h7.6c0.4,0,0.8-0.1,1.1-0.2c0.3-0.1,0.6-0.3,0.9-0.6c0.3-0.3,0.5-0.5,0.6-0.9
				c0.1-0.3,0.2-0.7,0.2-1.1v-1.9c0-0.4-0.1-0.7-0.2-1.1c-0.1-0.3-0.3-0.6-0.6-0.9c-0.3-0.3-0.6-0.5-0.9-0.6
				c-0.3-0.1-0.7-0.2-1.1-0.2h-7.6c-0.4,0-0.8,0.1-1.1,0.2c-0.3,0.1-0.6,0.3-0.9,0.6c-0.3,0.3-0.5,0.6-0.6,0.9
				c-0.1,0.3-0.2,0.7-0.2,1.1V35.6z"/>
		</g>
	</g>
</g>
</svg>
