<?xml version="1.0" encoding="utf-8"?>
<!-- Generator: Adobe Illustrator 16.0.0, SVG Export Plug-In . SVG Version: 6.00 Build 0)  -->
<!DOCTYPE svg PUBLIC "-//W3C//DTD SVG 1.1//EN" "http://www.w3.org/Graphics/SVG/1.1/DTD/svg11.dtd">
<svg version="1.1" id="Layer_1" xmlns="http://www.w3.org/2000/svg" xmlns:xlink="http://www.w3.org/1999/xlink" x="0px" y="0px"
	 width="841.89px" height="595.28px" viewBox="0 0 841.89 595.28" enable-background="new 0 0 841.89 595.28" xml:space="preserve">
<g>
	<g>
		<path fill="#205196" d="M238.853,291.267c0,40.956-33.199,74.151-74.129,74.151c-40.965,0-74.164-33.195-74.164-74.151
			c0-40.953,33.199-74.16,74.164-74.16C205.653,217.107,238.853,250.314,238.853,291.267"/>
		<path fill="#DBDBDB" d="M231.345,291.267c0,36.799-29.828,66.627-66.621,66.627c-36.797,0-66.645-29.828-66.645-66.627
			c0-36.803,29.848-66.645,66.645-66.645C201.517,224.623,231.345,254.464,231.345,291.267"/>
	</g>
	<g>
		<defs>
			<path id="SVGID_1_" d="M98.271,291.267c0,36.694,29.746,66.432,66.453,66.432c36.672,0,66.422-29.738,66.422-66.432
				c0-36.691-29.75-66.441-66.422-66.441C128.017,224.826,98.271,254.576,98.271,291.267"/>
		</defs>
		<clipPath id="SVGID_2_">
			<use xlink:href="#SVGID_1_"  overflow="visible"/>
		</clipPath>
		<polygon clip-path="url(#SVGID_2_)" fill="#58AE6B" points="199.224,189.248 219.853,187.234 223.052,198.919 205.911,206.958 		
			"/>
		<polygon clip-path="url(#SVGID_2_)" fill="#58AE6B" points="124.403,283.677 137.083,310.514 156.931,310.514 151.274,290.021 
			141.56,272.738 		"/>
		<polyline clip-path="url(#SVGID_2_)" fill="#DDC7D2" points="234.712,227.73 242.157,254.644 292.552,244.609 287.618,221.513 
			280.849,206.531 232.216,227.792 		"/>
		<polyline clip-path="url(#SVGID_2_)" fill="#9CC034" points="79.243,276.433 86.7,303.344 122.716,286.154 116.239,274.417 
			105.353,259.748 68.872,266.531 		"/>
		<path clip-path="url(#SVGID_2_)" fill="#DD2D72" d="M87.595,204.273l-0.773,0.02c0-0.254-0.004-0.508-0.004-0.771l0.758-0.006
			C87.575,203.763,87.595,204.021,87.595,204.273"/>
		<path clip-path="url(#SVGID_2_)" fill="#DD2D72" d="M87.595,201.925l-0.762-0.035c0.008-0.148,0.008-0.309,0.016-0.459
			c0.004-0.357,0.051-0.744,0.059-1.146l0.773,0.033c-0.016,0.396-0.035,0.783-0.07,1.158
			C87.61,201.619,87.595,201.769,87.595,201.925 M87.751,198.705l-0.785-0.031c0.035-0.518,0.047-1.047,0.07-1.604l0.754,0.027
			C87.778,197.658,87.763,198.193,87.751,198.705 M87.86,195.488l-0.77-0.031l0.066-1.604l0.766,0.023L87.86,195.488z"/>
		<polygon clip-path="url(#SVGID_2_)" fill="#DD2D72" points="87.966,192.271 87.185,192.242 87.216,191.468 87.981,191.505 		"/>
		<path clip-path="url(#SVGID_2_)" fill="#DD2D72" d="M103.927,256.373c-0.125-0.223-0.25-0.453-0.363-0.66l0.664-0.375
			c0.113,0.211,0.25,0.438,0.367,0.668L103.927,256.373z"/>
		<path clip-path="url(#SVGID_2_)" fill="#DD2D72" d="M102.845,254.457c-0.234-0.412-0.465-0.789-0.672-1.146l-0.066-0.104
			l0.66-0.396l0.062,0.113c0.211,0.357,0.426,0.729,0.676,1.145L102.845,254.457z M101.384,251.953
			c-0.266-0.477-0.492-0.887-0.695-1.305l0.695-0.334c0.191,0.4,0.402,0.803,0.664,1.264L101.384,251.953z M100.071,249.306
			c-0.176-0.43-0.34-0.875-0.504-1.371l0.711-0.26c0.172,0.477,0.336,0.924,0.516,1.344L100.071,249.306z M99.11,246.546
			c-0.156-0.432-0.281-0.893-0.449-1.396l0.738-0.215c0.152,0.5,0.285,0.953,0.418,1.377L99.11,246.546z M98.271,243.746
			c-0.117-0.445-0.238-0.916-0.375-1.396l0.742-0.201c0.137,0.494,0.254,0.957,0.379,1.398L98.271,243.746z M97.423,241.023
			c-0.172-0.432-0.363-0.881-0.539-1.338l0.703-0.291c0.184,0.461,0.383,0.91,0.531,1.34L97.423,241.023z M96.317,238.347
			l-0.555-1.344l0.707-0.297l0.562,1.348L96.317,238.347z M95.196,235.666c-0.172-0.443-0.352-0.891-0.543-1.357l0.703-0.277
			c0.195,0.455,0.371,0.896,0.551,1.35L95.196,235.666z"/>
		<polygon clip-path="url(#SVGID_2_)" fill="#DD2D72" points="94.103,232.953 93.829,232.24 94.54,231.958 94.817,232.669 		"/>
		<path clip-path="url(#SVGID_2_)" fill="#DD2D72" d="M119.751,286.06l-0.75,0.094c0-0.006-0.027-0.258-0.133-0.721l0.77-0.156
			C119.72,285.781,119.751,286.058,119.751,286.06"/>
		<path clip-path="url(#SVGID_2_)" fill="#DD2D72" d="M118.595,284.167c-0.09-0.361-0.203-0.775-0.352-1.242l0.754-0.217
			c0.141,0.482,0.23,0.906,0.328,1.279L118.595,284.167z"/>
		<path clip-path="url(#SVGID_2_)" fill="#DD2D72" d="M117.856,281.689c-0.066-0.229-0.156-0.463-0.234-0.713l0.719-0.262
			c0.09,0.262,0.172,0.5,0.238,0.73L117.856,281.689z"/>
		<polygon clip-path="url(#SVGID_2_)" fill="#DF315A" points="266.247,231.886 263.54,231.949 263.466,229.242 259.407,229.343 
			259.47,232.054 256.751,232.109 256.86,236.173 259.567,236.113 259.642,238.822 263.696,238.722 263.622,236.011 
			266.337,235.957 		"/>
		<path clip-path="url(#SVGID_2_)" fill="#FCF1EF" d="M298.298,198.025c-5.586,2.016-11.461,4.127-17.312,6.238l-9.168-18.465
			h-9.219c-2.402,1.125-5.383,2.555-8.945,4.285c-5.656,2.752-11.398,5.602-14.383,7.092c-0.117,0-0.285,0.023-0.406,0.062
			l-9.941,3.115l-4.977,0.928c-0.598-1.881-1.055-3.541-1.344-4.887c-0.32-1.668-0.715-3.234-1.07-4.754
			c-0.582-2.383-1.004-4.299-1.207-5.842h-3.082c0.012,0.076,0.023,0.15,0.027,0.232l-6.598,0.92l-0.016-1.152h-2.684l0.027,1.525
			l-6.09,0.846c-0.23-0.783-0.484-1.576-0.711-2.371h-6.398c0.469,1.57,0.926,3.125,1.402,4.643
			c-0.23-0.158-0.488-0.258-0.777-0.258l-21.891,0.1c-0.406,0-0.785,0.17-1.027,0.461c-0.25,0.307-0.359,0.686-0.297,1.084
			l1.785,10.406c-2.172,0-4.535,0.027-6.984,0.072l-0.066-2.812l4.539-0.289c0.727-0.043,1.293-0.688,1.242-1.424
			c-0.039-0.736-0.672-1.297-1.418-1.254l-8.121,0.518c-0.715,0.049-1.258,0.648-1.246,1.352c0.02,0.721,0.574,1.311,1.293,1.322
			l1.035,0.031l0.059,2.625c-10.246,0.328-17.324,1.219-21.004,2.646c-0.047,0.021-0.098,0.021-0.152,0.059l-10.152-4.963
			l4.762-9.525c2.582,0.443,5.152,0.762,7.562,0.877c17.004,0.773,20.645,0.578,21.633-1.164c0.375-0.658,0.883-2.463,1.082-4.506
			h-2.695c-0.148,1.277-0.379,2.436-0.637,3.002c-1.305,0.533-6.992,0.471-12.41,0.27l0.223-3.271h-3.062l-0.219,3.162
			c-1.367-0.061-2.68-0.127-3.777-0.178c-2.203-0.098-4.512-0.371-6.863-0.76c0.117-0.654,0.258-1.412,0.355-2.225h-2.707
			c-0.078,0.568-0.184,1.152-0.285,1.744c-2.539-0.494-5.035-1.104-7.391-1.744h-9.207c3.926,1.336,9.711,3.076,15.656,4.285
			l-4.418,8.861l-14.246-6.957l0.141-6.189h-1.91l-0.156,5.9c-3.02-0.008-13.109-0.037-23.793-0.059
			c0.074-1.85,0.117-3.809,0.18-5.842h-6.125c-0.062,2.025-0.117,3.977-0.164,5.818c-4.734-0.021-9.336-0.045-13.25-0.061
			l1.035-5.758h-2.73l-1.016,5.742c-4.266-0.023-7.328-0.045-8.246-0.072c-2.34-0.064-4.582,0.746-6.32,1.623
			c-0.887-2.191-2.211-4.514-4.109-7.293H42.36c3.172,4.205,4.977,7.084,5.988,9.619c1.586,4.016,1.137,7.611,0.258,14.75
			c-0.105,0.943-0.242,1.941-0.371,3.006c-1.32,11.221-0.094,19.377,1.145,24.197l-17.949,1.381v2.686l15.98-1.234
			c0.016,0.102,0.043,0.203,0.059,0.305l2.328,8.002l-4.305,0.83c0,0-0.031,0-0.059,0.002l-7.262,1.393l-5.035-8.234
			c-0.371-0.592-1.047-0.891-1.707-0.803v4.621l4.43,7.23c0.367,0.605,1.094,0.926,1.793,0.785l7.039-1.342l2.777,7.324
			l-6.125,3.225c-0.824,0.443-1.156,1.492-0.703,2.334c0.441,0.836,1.477,1.164,2.328,0.719l7.441-3.951
			c0.793-0.4,1.141-1.322,0.82-2.123l-3.113-8.189l2.637-0.496l4.473,15.434l-1.988,0.602c-0.508,0.148-0.891,0.52-1.09,1.006
			c-0.199,0.488-0.168,1.035,0.086,1.484l22.07,39.149c-0.41,0.25-0.812,0.506-1.234,0.781c-1.301,0.855-2.676,1.748-4.062,2.674
			l-20.121-28.293c-0.465-0.656-1.344-0.904-2.078-0.582l-11.938,5.062c-1.102-1.162-2.25-2.422-3.441-3.799v5.148
			c0.234,0.258,0.457,0.51,0.672,0.742l-0.672,0.791v5.254l3.066-3.529c3.676,3.791,6.52,6.325,8.668,8.209
			c3.246,2.885,4.289,3.854,4.309,5.178l0.051,1.742c-3.75,1.018-10.047,4.305-16.094,7.945v7.227
			c6.695-4.23,14.633-8.691,18.02-9.338c1.492,1.295,4.145,3.643,6.824,6.588c-8.586,5.52-17.891,11.059-24.844,13.586v15.805
			c3.367,9.07,8.598,26.602,10.617,37.801c0,0.012,0.012,0.016,0.012,0.016l-4.34,0.41l-6.289-33.234v18.512l2.852,15.043
			l-2.852,0.25v3.465l3.488-0.324l3.898,20.547c0.141,0.762,0.773,1.328,1.539,1.398l2.504,0.23
			c0.578,3.574,1.582,6.863,3.355,8.738c0.523,0.547,1.02,1.062,1.523,1.523c-5.148,1-10.734,3.164-16.203,5.273
			c-0.031,0.016-0.074,0.023-0.105,0.047v6.562c0.777-0.297,1.547-0.594,2.324-0.898c11.055-4.27,21.492-8.316,26.184-2.625
			c1.301,1.578,2.613,3.102,3.918,4.57c-2.754,6.898-2.629,12.195-2.324,14.688h6.18c0,0,0-0.016,0-0.023
			c-0.039-0.199-0.75-3.305,0.508-8.344c0.387,0.387,0.938,0.586,1.496,0.488c0.094-0.012,0.207-0.043,0.309-0.082l0.09-0.027
			c3.086,3.145,5.945,5.859,8.266,7.988h9.293c-1.281-1.07-5.723-4.867-11.223-10.305l4.445-1.617
			c0.891-0.332,1.344-1.312,1.027-2.211c-0.332-0.898-1.328-1.352-2.215-1.023l-5.914,2.152c-0.887-0.902-1.785-1.848-2.684-2.812
			c0.578-1.105,1.234-2.246,2.016-3.426c0.738-1.141,1.641-2.367,2.512-3.559c1.395-1.887,2.699-3.66,3.605-5.348
			c0.141-0.211,0.242-0.438,0.355-0.645c4.449-0.43,9.973-1.23,15.379-2.512l8.25,31.305h3.57l-8.488-32.156
			c1.09-0.297,2.168-0.629,3.227-0.977l9.852,33.133h3.602l-10.227-34.328c1.758-0.703,3.375-1.488,4.797-2.359
			c4.426-2.684,9.969-4.438,17.008-5.922l3.66,11.832c0,0.004,0,0.012,0.016,0.035l7.656,24.738
			c-0.801,0.355-1.293,0.559-1.312,0.582c-0.074,0.023-0.133,0.062-0.203,0.098c-3.891,2.082-7.574,3.84-11.074,5.324h14.172
			c1.594-0.711,6.988-3.078,12.066-5.359c0.887,2.727,1.48,4.52,1.586,4.883c0.047,0.16,0.113,0.312,0.199,0.461l0,0l7.391,0.016
			c-0.699-0.828-1.328-1.672-1.84-2.625c-0.219-0.652-0.844-2.555-1.742-5.305c0.645-0.281,1.219-0.555,1.742-0.809
			c6.328-3.012,13.406-4.574,21.512-4.723l0.559,13.461h25.559c5.887-0.992,10.785-1.973,11.879-2.312
			c4.145-1.273,55.27-9.008,59.219-8.492c0.285,0.094,0.574,0.109,0.824,0.07c0.551-0.094,1.027-0.43,1.289-0.945
			c0.41-0.859,0.055-1.883-0.82-2.305c-0.691-0.352-2.039-1.004-30.66,3.25c-13.238,1.945-28.801,4.488-30.871,5.137
			c-3.613,1.125-26.957,4.965-33.008,4.527l-0.531-12.367c0.867,0.023,1.73,0.07,2.609,0.125c2.562,0.152,5.406,0.219,8.367,0.219
			l0.277,8.645c0.02,0.949,0.805,1.699,1.762,1.676c0.086,0,0.172-0.016,0.246-0.031c0.828-0.141,1.449-0.875,1.441-1.75
			l-0.273-8.57c12.203-0.188,25.191-1.262,26.75-1.379c5.645-0.035,16.867-1.137,27.754-2.836l0.047-0.012l0.02-0.008
			c6.773-1.055,13.406-2.359,18.484-3.781c5.711-1.594,15.312-3.75,26.98-4.266v-6.137c-9.652,0.406-19.41,1.926-28.621,4.512
			c-4.148,1.16-9.516,2.25-15.148,3.188c-1.367-5.109-4.457-16.992-7.293-29.898c6.926-0.188,14.77-0.824,24.57-1.914
			c7.184-0.781,16.734-1.098,26.492-1.184v-6.129c-9.914,0.082-19.691,0.414-27.176,1.234c-10.18,1.117-18.141,1.75-25.199,1.891
			c-1.137-5.551-2.184-11.133-2.973-16.297c-0.93-6.07-1.965-13.277-3.035-20.812c2.242-0.227,7.012-0.445,12.355,0.836
			c4.219,1.016,14.023,2.234,23.266,2.906c5.996,0.43,16.273,0.93,22.762,0.016v-2.719c-10.941,1.727-37.707-0.953-45.398-2.805
			c-5.805-1.402-10.938-1.145-13.363-0.891c-0.52-3.727-1.051-7.504-1.578-11.246l3.172-0.074c0.07-0.008,0.145-0.02,0.215-0.02
			c0.734-0.121,1.273-0.742,1.285-1.496l0.125-8.633c0.91,0.234,1.965,0.277,2.902-0.246c1.371-0.746,2.008-2.371,1.902-4.812
			c-0.168-3.348-0.203-5.355-0.203-6.469l4.695-0.799c0.398-0.08,0.762-0.299,0.996-0.645c0.254-0.342,0.332-0.764,0.254-1.162
			c0-0.027-0.105-0.51-0.281-1.482c1.977,0.062,3.988,0.127,6.012,0.209l-0.5,2.482c-0.098,0.518,0.23,1.008,0.746,1.113
			c0.543,0.104,1.031-0.232,1.129-0.754l0.535-2.748c1.746,0.074,3.48,0.156,5.203,0.25l0.102,5.332
			c0,0.527,0.461,0.953,0.977,0.941c0.043,0,0.086-0.004,0.137-0.004c0.457-0.09,0.812-0.492,0.793-0.969l-0.098-5.188
			c1.438,0.086,2.848,0.188,4.262,0.283l0.102,4.934c0.027,0.732,0.656,1.322,1.395,1.311c0.059,0,0.121-0.016,0.184-0.02
			c0.641-0.113,1.137-0.688,1.113-1.359l-0.105-4.674c0.883,0.074,1.758,0.143,2.633,0.223l-0.227,4.24
			c-0.039,0.738,0.531,1.379,1.262,1.41c0.762,0.039,1.375-0.531,1.406-1.275l0.223-4.129c1.309,0.125,2.555,0.258,3.82,0.4
			l-0.867,3.445c-0.094,0.41,0,0.836,0.262,1.16c0.266,0.336,0.668,0.516,1.066,0.516l3.668-0.094l-1.602,24.328
			c-0.047,0.738,0.516,1.375,1.25,1.43c0.117,0,0.211,0,0.301-0.023c0.609-0.102,1.078-0.598,1.113-1.219l1.695-25.799
			c0.027-0.375-0.094-0.74-0.363-1.016c-0.266-0.273-0.629-0.42-0.988-0.42l-3.367,0.078l0.516-2.055
			c3.387,0.43,6.5,0.93,9.27,1.521c0.746,0.16,1.488,0.32,2.223,0.471v-3.916c-0.293-0.057-0.566-0.111-0.867-0.17
			c0.238-1.203,0.488-3.004,0.637-5.564c0.129-1.711,0.184-3.555,0.184-5.525l0.047,0.004v-2.686
			c-0.02-0.008-0.047-0.008-0.074-0.008c-0.109-5.692-0.598-12.36-1.453-19.948c-0.008-0.109-0.031-0.209-0.059-0.312
			c0.016-0.1,0.016-0.203,0.016-0.309l-0.215-5.602l1.785,0.049v-3.439l-2.246-0.072c-0.184-2.209-0.391-4.371-0.598-6.482
			c0.793,0.027,1.742,0.051,2.844,0.051v-3.439c-1.363,0-2.453-0.023-3.211-0.055c-0.223-2.031-0.43-4.004-0.68-5.936l3.891,0.092
			v-3.066l-4.277-0.094c-0.344-2.711-0.715-5.309-1.094-7.797c0.977-0.043,2.891-0.125,5.371-0.184v-3.072
			c-2.852,0.072-4.992,0.16-5.836,0.203c-1.395-8.795-2.848-16.09-4.117-21.697l9.953-4.291v-2.92l-10.566,4.551
			c-1.125-4.789-2.012-8.008-2.441-9.482c4.398-1.58,8.758-3.156,13.008-4.68V198.025z M33.392,279.15
			c0.445,0.152,0.914,0.127,1.34-0.074l15.984-7.676c0.844-0.418,1.211-1.447,0.801-2.305c-0.418-0.861-1.438-1.223-2.297-0.807
			l-14.398,6.928c-0.574-1.25-1.43-3.066-2.332-5.004l5.867-2.697c0.422-0.205,0.773-0.562,0.914-1.021
			c0.152-0.441,0.113-0.939-0.102-1.357l-7.738-14.592v7.355l3.832,7.248l-3.832,1.766v9.174c0.352,0.762,0.672,1.49,0.984,2.158
			C32.618,278.664,32.95,278.992,33.392,279.15 M240.325,199.638c2.934-1.463,8.754-4.354,14.504-7.146
			c5.82-2.834,10.121-4.855,12.793-6.031c0.195-0.088,0.359-0.221,0.492-0.375l9.594,19.348c-4.922,1.762-9.781,3.52-14.453,5.193
			l-10.32-8.297l-5.34-3.104c-0.41-0.307-0.969-0.338-1.434-0.098c-2.613,1.432-5.449,2.17-5.941,1.766
			C240.22,200.894,240.056,200.597,240.325,199.638 M237.521,200.939c0.07,0.83,0.383,1.506,0.965,1.988
			c1.137,0.971,3,0.971,5.715,0.01c0.98-0.363,1.887-0.766,2.504-1.062l13.492,9.842c-12.395,4.461-22.992,8.26-28.422,10.193
			c-1.703-4.129-3.441-8.391-4.941-12.35c2.828-2.092,5.207-4.115,7.066-5.705C235.255,202.701,236.743,201.423,237.521,200.939
			 M208.028,346.094h-0.055l-6.418,0.156l-0.191-7.949c0-0.016,0-0.031,0-0.047l-0.227-9.289l15.578,2.555
			c0.516,0.094,1.059-0.062,1.422-0.406c0.398-0.352,0.613-0.852,0.57-1.375l-0.703-14.107h0.055c0.02,0,0.047,0,0.066,0h0.984
			c0.887-0.008,1.883-0.014,2.988-0.014l-2.387,30.27c-0.246-0.016-0.484-0.039-0.664-0.047c-0.062-0.008-0.117-0.008-0.184-0.008
			L208.028,346.094z M209.349,392.129c-2.031,0.227-4.273,0.5-6.691,0.789l-1.02-43.227l4.789-0.117L209.349,392.129z
			 M98.349,394.41l0.715,2.672c-0.312,0.129-0.598,0.25-0.91,0.367c-7.547,3.047-11.516,2.52-13.504,1.555
			c-1.621-0.781-2.176-2-2.336-2.375c0.312-0.477,1.949-2.281,8.867-3.93c11.004-2.617,30.113-9.609,36.926-12.148
			c1.227,2.195,2.367,4.258,3.316,6.074c-5.766,1.52-17.449,4.809-29.137,9.215l-0.617-2.32c-0.242-0.918-1.191-1.473-2.102-1.223
			C98.638,392.543,98.095,393.492,98.349,394.41 M196.228,246.21c-0.566,0.248-0.902,0.848-0.801,1.465
			c0.062,0.402,0.324,0.746,0.672,0.943c0.277,0.15,0.578,0.203,0.867,0.15c0.07-0.012,0.156-0.031,0.223-0.066
			c0.715-0.242,7.027-2.523,10.262-4.486c0.641-0.383,0.848-1.209,0.453-1.844c-0.367-0.627-1.199-0.834-1.828-0.449
			c-0.656,0.396-1.469,0.82-2.32,1.225l-1.801-3.76c3.824-1.541,7.508-2.965,10.926-4.27c1.422,4.893,2.973,11.939,4.527,19.773
			l-2.293,0.346c-1.086,0.064-11.594,0.775-19.102,4.504c-4.402,2.178-10.18,2.697-15.352,2.672c-0.281-0.15-0.613-0.223-0.957-0.18
			c-0.211,0.021-0.375,0.072-0.562,0.156c-2.676-0.064-5.121-0.26-7.043-0.41c-1.047-0.088-1.949-0.162-2.695-0.199
			c-2.953-0.146-5.02,0.693-6.355,1.584c-0.547-1.844-1.164-3.285-1.73-4.377c10.82-6.725,25.109-13.252,38.148-18.588l1.762,3.713
			L196.228,246.21z M206.677,310.525l-2.289-23.098l5.195-0.789l4.719,23.967l0.047,1.061l-7.82-0.27
			C206.646,311.127,206.704,310.836,206.677,310.525 M204.079,284.328l-2.301-23.582c0.855-0.27,1.715-0.512,2.582-0.717
			l4.617,23.543L204.079,284.328z M213.013,286.117l4.656-0.699h0.016c0.406-0.066,0.754-0.35,0.98-0.684
			c0.258-0.34,0.332-0.818,0.258-1.229l-4.402-23.289c-0.145-0.834-0.984-1.367-1.793-1.225c-0.828,0.168-1.371,0.971-1.219,1.805
			l4.113,21.756l-3.223,0.486l-4.664-23.756c4.203-0.781,7.57-0.988,7.617-0.988c0.055,0,0.086-0.008,0.145-0.012l2.508-0.383
			c1.922,9.891,3.832,20.705,5.457,29.939c0.68,3.848,1.312,7.449,1.887,10.611c0.609,3.422,1.348,8.098,2.129,13.342
			c-3.348-0.008-6.215,0.002-8.375,0.004l-0.965,0.01l-0.324-0.014l-0.086-1.457c0-0.049,0-0.105,0-0.156l0,0v-0.008
			c-0.008-0.041-0.023-0.086-0.031-0.135L213.013,286.117z M152.099,345.621c0.707,0.645,1.785,0.594,2.438-0.113l3.199-3.516
			l1.438,0.633c-0.098,0.27-0.215,0.52-0.332,0.777c-0.332,0.789-0.637,1.523-0.906,2.219c-2.223,5.758-0.297,17.016-0.113,17.992
			l0.133,1.102l-5.855,1.816l-4.996-53.398l16.102,0.564c0.977,12.791-0.844,20.436-2.758,25.721l-2.453-1.078
			c-0.684-0.297-1.473-0.129-1.973,0.414l-4.027,4.434C151.345,343.902,151.384,344.98,152.099,345.621 M142.813,299.6
			c-0.426-0.846-1.473-1.17-2.328-0.737l-6.102,3.186l-7.961-16.401c4.219-3.074,8.859-6.602,13.98-10.658l7.75,12.508l3.902,13.071
			c0.016,0.021,0.016,0.035,0.035,0.057l2.68,8.953l-17.035-0.607l-1.852-3.814l6.195-3.24
			C142.919,301.494,143.247,300.441,142.813,299.6 M129.935,300.77l3.902,8.07l-14.043-0.498L129.935,300.77z M115.415,307.318
			l-5.043-10.668c3.891-2.465,8.254-5.379,13.219-8.953l4.805,9.914L115.415,307.318z M166.677,313.822l11.652,0.412l1.836,24.23
			l-16.266,1.562C165.829,334.527,167.603,326.633,166.677,313.822 M158.392,309.703l-2.43-8.121l8.043-0.895l1.824,9.277
			l-0.914-0.031c-0.059-0.004-0.102-0.004-0.164-0.004L158.392,309.703z M169.38,310.088l-1.941-9.789l5.848-0.666
			c0.023-0.006,0.039-0.006,0.039-0.006l8.484-0.948l1.25,11.756c0,0.047,0.02,0.092,0.027,0.141L169.38,310.088z M174.212,296.062
			c-2-4.748-9.398-22.525-10.109-27.73c-0.086-0.574-0.176-1.117-0.258-1.652c0.516-0.588,2.117-2.006,5.398-1.842
			c0.691,0.039,1.594,0.115,2.625,0.195c1.777,0.135,3.992,0.316,6.438,0.391l3.156,29.832L174.212,296.062z M164.192,280.214
			c2.258,6.178,5.047,12.902,6.453,16.256l-15.688,1.752l-3.574-11.93c-0.016-0.062-0.039-0.139-0.074-0.197L164.192,280.214z
			 M149.513,283.136l-6.387-10.303c2.906-2.326,5.977-4.82,9.211-7.498c1.797-1.482,3.848-2.988,6.074-4.465
			c0.793,1.625,1.77,4.219,2.285,7.936c0.23,1.764,1.152,4.752,2.336,8.164L149.513,283.136z M161.149,346.855
			c0.25-0.641,0.551-1.352,0.863-2.109c0.16-0.367,0.316-0.742,0.488-1.117l18.238-1.766l1.18,10.25l-21.574,2.25
			C160.259,351.535,160.435,348.715,161.149,346.855 M181.771,314.355l6.93,0.242l1.539,22.891l-6.512,0.633
			c-0.027-0.109-0.098-0.211-0.164-0.305L181.771,314.355z M186.427,310.684c0.066-0.193,0.094-0.396,0.059-0.607l-4.715-44.602
			c2.98-0.029,6.125-0.256,9.129-0.865l6.34,46.463L186.427,310.684z M197.364,314.91l0.289,12.02c0,0.035,0,0.051,0,0.078
			l0.227,9.754l-4.203,0.398l-1.516-22.447L197.364,314.91z M197.216,285.394l-2.953-21.654c1.078-0.357,2.125-0.775,3.102-1.258
			c0.359-0.176,0.711-0.346,1.074-0.488l2.242,22.867L197.216,285.394z M161.024,252.017l-6.852-11.699
			c4.82-3.174,11.168-7.629,17.738-12.305l8.906,13.771C173.86,245.005,167.067,248.46,161.024,252.017 M158.079,253.8
			c-3.621,2.248-6.883,4.535-9.645,6.816c-10.699,8.859-19.527,15.682-26.969,21.07c-1.184-3.916-3.766-10.428-9.344-18.52
			c-0.797-1.172-1.531-2.297-2.227-3.404l37.039-15.055c0.02-0.014,0.07-0.021,0.098-0.047c0.984-0.473,2.445-1.332,4.242-2.479
			L158.079,253.8z M145.591,241.539l-2.098,0.84l-3.977-15.752l6.406-2.324l4.141,14.582
			C148.122,240.13,146.579,241.044,145.591,241.539 M140.903,243.441l-32.801,13.328c-1.457-2.504-2.625-4.834-3.578-6.873
			l18.859-6.314l15.879-5.416L140.903,243.441z M130.802,238.23c-0.344-0.602-0.812-1.73-1.188-3.66
			c-0.254-1.324-0.547-2.705-0.82-4.137l6.418-2.25l1.77-0.643l1.992,7.893L130.802,238.23z M134.317,225.654l-6.051,2.125
			c-0.527-2.639-1.086-5.346-1.613-7.957l5.121-1.988l4.238,7.207L134.317,225.654z M126.985,235.078
			c0.355,1.855,0.824,3.133,1.254,4.02l-5.699,1.945l-19.094,6.379c-1.648-3.877-2.309-6.312-2.309-6.354
			c-0.047-0.137-0.078-0.262-0.141-0.389c-0.047-0.146-0.109-0.291-0.176-0.447l25.43-8.906
			C126.509,232.623,126.755,233.888,126.985,235.078 M99.81,237.753c-0.066-0.104-0.105-0.203-0.141-0.316
			c-1.227-2.949-2.637-6.344-3.996-9.994l28.418-6.777c0.535,2.633,1.082,5.359,1.617,8.014L99.81,237.753z M94.759,224.912
			c-2.191-6.242-4.051-13.027-4.422-19.352l30.633-0.021c0.422,2.059,1.438,6.889,2.574,12.498L94.759,224.912z M94.005,239.785
			c0.457,1.078,0.871,2.086,1.262,3.027c0.332,1.221,2.102,7.174,6.52,15.25l-11.324,2.039c-0.043,0.006-0.074,0.006-0.117,0.021
			l-19.918,3.59c-7.375-12.848-12.93-22.42-13.863-24.057c-0.082-0.211-0.363-0.857-0.676-1.902l35.48-4.439
			C92.282,235.634,93.185,237.808,94.005,239.785 M89.739,263.726l10.609,21.422c0.344,0.703,1.102,1.059,1.832,0.934
			c0.156-0.023,0.324-0.076,0.473-0.146c0.859-0.428,1.203-1.465,0.793-2.314l-10.18-20.529l10.328-1.871
			c1.043,1.742,2.207,3.555,3.473,5.414c6.48,9.393,8.516,16.318,9.07,18.824c-10.785,7.488-18.367,11.684-24.762,14.944
			c-6.504-11.481-13.266-23.336-19.117-33.51L89.739,263.726z M107.095,298.679l5.777,12.209c0.305,0.65,0.945,1.07,1.66,1.094
			l6.625,0.234c-0.145,0.051-0.285,0.1-0.41,0.172l-16.859,10.342c-2.906-5.268-6.137-11.021-9.504-16.986
			C98.106,303.842,102.224,301.629,107.095,298.679 M112.466,321.514l1.297,1.932c0.527,0.785,1.605,1,2.391,0.473
			c0.801-0.531,1.008-1.594,0.469-2.391l-1.23-1.812l7.148-4.385c0.816-0.492,1.062-1.562,0.562-2.361
			c-0.203-0.348-0.516-0.58-0.859-0.701l11.926,0.41l-24.664,20.287c-1.207-2.242-2.543-4.656-3.938-7.219L112.466,321.514z
			 M106.075,339.504c2.008,3.789,3.578,6.812,4.516,8.828c3.941,8.445,9.301,17.82,14.012,26.102c0.148,0.23,0.281,0.469,0.43,0.719
			c-3.738,1.383-10.16,3.727-16.895,6.016l-1.012-3.75l9.988-3.109c0.488-0.148,0.875-0.5,1.078-0.973
			c0.199-0.453,0.176-0.988-0.051-1.441l-13.242-26.461c-0.215-0.406-0.57-0.719-1.012-0.867c-0.438-0.133-0.914-0.102-1.324,0.109
			c-0.145,0.074-1.898,0.977-4.281,2.289l-1.465-2.875C100.458,342.207,103.997,340.504,106.075,339.504 M103.849,378.449
			l1.02,3.812c-5.492,1.82-10.945,3.492-15.102,4.488c-1.148,0.27-2.199,0.559-3.188,0.855l-0.543-3.594L103.849,378.449z
			 M85.552,380.551l-0.68-4.516l16.992-5.016l1.098,4.102L85.552,380.551z M104.274,366.715l-4.465-16.656
			c1.098-0.602,2.055-1.125,2.789-1.508l8.141,16.25L104.274,366.715z M112.306,367.934l1.855,3.695l-7.898,2.469l-1.098-4.047
			L112.306,367.934z M100.966,367.691l-16.598,4.902l-1.895-12.926c1.832-0.594,5.055-1.871,8.727-4.398
			c1.691-1.164,3.652-2.367,5.508-3.457L100.966,367.691z M130.907,373.098c-0.32-0.555-0.648-1.133-0.973-1.711
			c-4.68-8.18-9.961-17.43-13.805-25.656c-1.027-2.188-2.734-5.531-4.961-9.68l27.324-22.475c0.242-0.197,0.414-0.447,0.516-0.73
			l4.641,0.162l3.547,38.176l-12.355,3.965c-0.895,0.293-1.41,1.262-1.113,2.168c0.289,0.906,1.25,1.41,2.156,1.109l11.656-3.723
			l1.184,12.879L130.907,373.098z M158.692,370.902l1.367,11.461l1.434,15.852c-2.516,0.367-4.883,0.715-7.082,1.062
			c-2.906,0.461-5.707,0.891-8.379,1.289c-0.984,0.156-1.965,0.305-2.926,0.457c-1.551-4.902-2.68-8.598-3.051-9.969
			c-0.25-0.965-0.734-2.184-1.379-3.602c-0.035-0.059-0.051-0.117-0.086-0.184c-1.094-2.367-2.684-5.316-4.594-8.711
			L158.692,370.902z M161.317,363.879l-0.09-0.727c-0.016-0.031-0.016-0.066-0.016-0.102c-0.199-1.133-0.488-3.062-0.66-5.242
			l23.457-2.453c0.441-0.047,0.887-0.273,1.16-0.637c0.301-0.355,0.418-0.816,0.375-1.277l-1.379-11.906l13.801-1.336l0.184,7.828
			c0,0.012,0,0.012,0,0.016c0,0.008,0,0.023,0,0.023l0.211,9.047c-0.305-0.027-0.613-0.027-0.926,0.023L161.317,363.879z
			 M167.517,368.957l0.242,16.359c0,0.957,0.789,1.711,1.742,1.707c0.078-0.004,0.168-0.012,0.266-0.027
			c0.82-0.141,1.441-0.859,1.441-1.73l-0.246-16.957l7.754-1.453l0.426,9.039c0.07,0.945,0.855,1.68,1.812,1.633
			c0.078,0,0.141-0.012,0.211-0.023c0.844-0.141,1.469-0.898,1.434-1.781l-0.457-9.5l9.004-1.688l2.07,20.805
			c0.098,0.949,0.945,1.633,1.891,1.539c0.031,0,0.07-0.008,0.113-0.023c0.879-0.148,1.504-0.953,1.418-1.867l-2.094-21.086
			l3.961-0.742l0.719,30.164c-10.496,1.266-23.363,2.867-34.316,4.406l-1.426-15.703c0-0.008,0-0.027,0-0.047l-1.426-12.004
			L167.517,368.957z M197.618,288.445l3.363-0.516l2.254,22.928c0.012,0.148,0.066,0.291,0.117,0.422l-2.648-0.094
			c0-0.041,0-0.096,0-0.143L197.618,288.445z M205.653,315.201l0.09,3.67c0.035,0.73,0.652,1.311,1.391,1.293
			c0.734-0.016,1.309-0.629,1.297-1.363l-0.082-3.506l6.195,0.219l0.633,12.264l-14.113-2.32l-0.242-10.436L205.653,315.201z
			 M219.767,349.34c3.156,0.195,9.512,0.555,13.164,0.75c0.609,4.391,1.238,8.734,1.84,12.906l-17.238,1.266l-0.332-14.344
			L219.767,349.34z M222.372,346.051l2.402-30.434c1.031,0,2.129,0,3.273,0c0.73,4.947,1.473,10.223,2.188,15.254
			c0.551,3.848,1.094,7.789,1.637,11.742c0.199,1.328,0.387,2.664,0.578,4C229.571,346.453,225.47,346.227,222.372,346.051
			 M232.067,301.396c-0.254-1.461-0.477-2.823-0.695-4.03c-0.051-0.225-0.094-0.453-0.129-0.699l15.109-2.885
			c0.254,1.762,0.512,3.424,0.754,4.979C241.825,299.67,235.638,300.752,232.067,301.396 M230.642,293.283
			c-0.375-2.053-0.75-4.23-1.156-6.508c-0.562-3.135-1.137-6.434-1.727-9.828l8.309-2.604c0.711-0.215,1.113-0.971,0.879-1.678
			c-0.203-0.703-0.953-1.094-1.68-0.873l-7.992,2.492c-0.344-1.938-0.707-3.902-1.059-5.863l16.062-2.848
			c0.801,4.996,1.625,10.805,2.598,17.748c0.336,2.494,0.672,4.848,1,7.053L230.642,293.283z M225.638,265.287
			c-0.516-2.795-1.035-5.576-1.574-8.293l16.215-2.424c0.492,2.402,0.977,5.006,1.469,7.881L225.638,265.287z M223.481,253.984
			c-0.738-3.648-1.477-7.152-2.188-10.365l13.691-6.248c1.934,4.527,3.371,8.93,4.598,14.207L223.481,253.984z M220.688,240.951
			c-0.707-3.01-1.406-5.713-2.062-7.967c5.586-2.035,10.02-3.57,12.605-4.439c0.926,2.23,1.84,4.369,2.711,6.361L220.688,240.951z
			 M229.493,202.988c0.066-0.012,0.121-0.023,0.172-0.041l1.855-0.588c-1.57,1.344-3.465,2.926-5.652,4.586
			c-0.391-1.07-0.746-2.105-1.094-3.09L229.493,202.988z M224.255,211.392c1.41,3.703,2.996,7.627,4.598,11.488
			c-2.672,0.896-6.949,2.363-12.234,4.291c-0.621-1.557-1.383-3.375-2.242-5.486c-0.527-1.262-1.102-2.617-1.699-4.051
			C217.032,215.906,220.911,213.669,224.255,211.392 M208.978,189.892c0.188,0.061,0.379,0.07,0.602,0.043l8.125-1.246
			c0.242,1.189,0.547,2.434,0.852,3.658c0.367,1.494,0.719,3.043,1.055,4.646c0.305,1.52,0.816,3.357,1.453,5.426l-8.266,5.662
			c-0.617,0.414-0.77,1.252-0.359,1.865c0.418,0.607,1.262,0.764,1.867,0.346l7.656-5.227c0.402,1.195,0.859,2.451,1.332,3.75
			c-3.34,2.318-7.25,4.604-11.617,6.336c-2.758-6.756-5.945-15.035-8.938-24.387L208.978,189.892z M201.661,206.365
			c2.57,6.898,5.059,12.867,7.047,17.67c0.844,2.033,1.582,3.783,2.16,5.27c-8.211,3.094-17.949,6.988-27.574,11.346l-9.199-14.195
			c1.359-0.982,2.727-1.949,4.086-2.928l5.883,8.723c0.258,0.35,0.66,0.566,1.078,0.588c0.422,0.01,0.832-0.186,1.105-0.527
			l8.781-11.342l5.141-3.113l0.91,1.428c0.387,0.621,1.207,0.816,1.832,0.418c0.637-0.385,0.812-1.199,0.441-1.822l-1.574-2.578
			c-0.07-0.119-0.148-0.221-0.262-0.309l-3.68-5.805C199.364,208.07,200.661,207.109,201.661,206.365 M180.353,221.958
			c5.707-4.125,11.121-8.09,15.332-11.178l3.023,4.816l-5.277,3.205c-0.145,0.082-0.258,0.195-0.355,0.32l-7.824,10.09
			L180.353,221.958z M165.165,205.039c0.176,0.07,0.352,0.102,0.539,0.102l18.629-0.059c0.734,0,1.336-0.576,1.336-1.312
			c0.012-0.723-0.559-1.324-1.293-1.365c-0.043,0-3.141-0.107-7.652-0.143l-1.598-9.297l19.188-0.09l1.293,6.893
			c0.168,0.725,0.844,1.209,1.582,1.062c0.734-0.143,1.211-0.842,1.074-1.564l-1.117-5.854c1.07,3.348,2.188,6.549,3.289,9.582
			c-6.484,4.789-33.234,24.512-47.352,33.92l-3.746-13.199l9.746-0.229c0.746-0.012,1.316-0.625,1.316-1.375
			c-0.023-0.734-0.648-1.322-1.367-1.301l-10.453,0.25l-3.891-13.686C148.29,206.121,155.321,205.312,165.165,205.039
			 M145.192,221.708l-6.625,2.408l-4.277-7.271l3.445-1.336c0.508-0.199,0.855-0.717,0.844-1.283l-0.102-3.936l3.035-1.51
			L145.192,221.708z M131.134,203.029l8.035,3.926l-2.641,1.311c-0.465,0.229-0.746,0.709-0.742,1.223l0.094,3.869l-2.961,1.154
			l-1.57-2.631l-2.227-6.496L131.134,203.029z M125.228,200.148l3.418,1.67l-2.062,2.402c-0.312,0.363-0.414,0.859-0.254,1.318
			l2.535,7.336c0.035,0.08,0.086,0.168,0.129,0.246l1.391,2.377l-4.293,1.668c-1.246-6.195-2.332-11.373-2.633-12.828
			L125.228,200.148z M90.29,201.597c0.098-1.75,0.172-3.973,0.27-6.521c11.352,0.037,22.082,0.064,24.406,0.064l7.852,3.836
			l-1.652,3.881l-30.914,0.018C90.259,202.447,90.271,202.029,90.29,201.597 M70.692,195.001c4.016,0.023,8.801,0.041,13.727,0.053
			c-0.078,2.432-0.156,4.549-0.242,6.254c-0.043,1.074-0.055,2.168-0.023,3.277l-14.965-1.135L70.692,195.001z M54.313,213.89
			c0.141-1.043,0.258-2.035,0.371-2.971c0.777-6.371,1.207-10.492,0.367-14.477c1.387-0.771,3.305-1.588,5.188-1.529
			c0.895,0.027,3.758,0.047,7.723,0.066l-3.879,21.828c-0.137,0.701,0.34,1.398,1.043,1.539c0.727,0.152,1.41-0.307,1.578-1.027
			l2.52-11.18l15.09,1.139c0.699,7.994,3.336,16.281,6.051,23.465l-35.211,4.408C54.134,230.875,53.153,223.687,54.313,213.89
			 M56.302,270.55l1.551-0.473c0.906-0.268,1.414-1.221,1.16-2.129l-6.863-23.705c3.188,5.496,13.879,24.016,25.348,44.127
			l-8.551,4.607L56.302,270.55z M70.649,295.98l8.551-4.611c2.238,3.92,4.48,7.881,6.691,11.795
			c-2.98,1.494-5.758,2.914-8.625,4.557L70.649,295.98z M69.978,319.672c2.266-1.518,4.41-2.922,6.438-4.26
			c4.25-2.766,8.133-4.729,12.496-6.914c3.461,6.139,6.777,12.055,9.75,17.439l-11.133,6.828l-2.066-4.512
			c-0.398-0.867-1.414-1.242-2.293-0.844c-0.855,0.391-1.246,1.414-0.855,2.281l2.883,6.277c0.211,0.449,0.594,0.793,1.059,0.941
			c0.266,0.078,0.527,0.086,0.793,0.055c0.219-0.047,0.418-0.117,0.625-0.246l12.66-7.766c1.484,2.684,2.863,5.199,4.09,7.516
			c-3.809,1.824-12.051,5.84-17.574,9.203c-2.586,1.574-9.34,2.785-13.621,3.375c-1.316-7.41-2.656-13.973-3.539-17.16
			c-0.891-3.234-2.508-6.312-4.426-9.117C66.806,321.764,68.372,320.721,69.978,319.672 M71.876,388.871
			c-2.043,0.969-7.617,3.176-12.883,4.066c-0.844,0.137-1.582,0.23-2.227,0.285c-0.52,0.008-1.031,0.023-1.547,0.051
			c-1.5-0.012-2.273-0.27-2.609-0.426c-1.266-0.617-2.266-1.34-3.012-2.195l22.352-4.543
			C71.97,387.395,71.95,388.293,71.876,388.871 M42.36,296.609c-1.449-1.32-3.09-2.898-4.953-4.793l9.469-4.016l2.438,3.424
			L42.36,296.609z M53.188,309.881l-0.352-0.318c-0.539-0.451-1.148-0.75-1.883-0.908l-0.023-1.586
			c-0.078-2.891-2-4.594-5.469-7.682c-0.176-0.137-0.336-0.277-0.5-0.432l6.359-4.922l14.816,20.827
			c-1.492,0.988-3.043,2.02-4.648,3.068C58.286,314.277,55.005,311.455,53.188,309.881 M42.282,399.645
			c-0.109,1.695-0.324,6.602,0.137,11.672l-0.461-0.039l-3.594-18.961l4.785-0.43c0.598,1.219,1.379,2.336,2.355,3.336
			C43.677,396.152,42.313,397.539,42.282,399.645 M48.075,387.426c-0.395-2.266-0.953-4.805-1.578-7.492l19.355-3.43
			c0.934-0.168,1.562-1.055,1.387-1.992c-0.145-0.949-1.062-1.57-1.996-1.398l-19.57,3.469c-3.18-12.68-7.941-27.539-10.52-32.895
			c-0.566-1.191-1.207-2.16-1.898-2.965c7.328-2.59,16.426-7.906,26.855-14.609c1.637,2.336,2.984,4.859,3.672,7.398
			c0.527,1.883,1.289,5.32,2.145,9.719l-5.973,1.824l-0.891-4.484c-0.18-0.938-1.086-1.555-2.012-1.363
			c-0.941,0.18-1.543,1.086-1.371,2.016l1.238,6.375c0.109,0.469,0.395,0.887,0.805,1.141c0.359,0.219,0.77,0.297,1.176,0.219
			c0.066-0.008,0.145-0.023,0.238-0.043l7.438-2.285c0.906,4.922,1.891,10.684,2.82,16.629c1.367,8.996,2.066,15.23,2.375,19.379
			l-23.684,4.816C48.075,387.441,48.075,387.426,48.075,387.426 M70.72,426.254c-0.922,1.266-1.898,2.562-2.711,3.855
			c-0.438,0.656-0.828,1.309-1.223,1.949c-0.699-0.828-1.414-1.664-2.117-2.516c-0.762-0.922-1.574-1.688-2.445-2.336
			c3.523-1.648,7.363-3.062,9.426-2.949c0.148,0.012,0.32,0.023,0.508,0.023C71.696,424.918,71.208,425.582,70.72,426.254
			 M75.462,418.098c-1.469,0.078-2.664,0.094-3.477,0.047c-5.008-0.273-12.836,3.637-16.137,5.422
			c-1.133-0.633-3.012-1.91-5.168-4.207c-1.945-2.078-2.711-11.199-2.32-18.762c1.102-0.539,3.684-1.004,7.027-1.191
			c0.551,0,1.105-0.027,1.719-0.074c2.992-0.082,6.461,0.059,9.945,0.516c6.332,0.824,8.832,2.23,9.367,2.766
			C76.981,406.707,77.669,412.027,75.462,418.098 M76.739,394.062c-0.277,0.551-0.43,1.098-0.523,1.602
			c-0.801-0.293-1.68-0.566-2.66-0.824c2.781-1.203,3.164-1.809,3.469-2.258c0.84-1.281,2.414-3.664-1.422-29.129
			c-0.543-3.586-1.148-7.348-1.762-11.004c4.07-0.562,11.5-1.82,14.805-3.844c1.531-0.922,3.293-1.906,5.113-2.895l1.527,2.957
			c-2.02,1.164-4.16,2.484-6.027,3.766c-4.977,3.402-9.023,4.293-9.051,4.293c-0.902,0.184-1.492,1.031-1.371,1.938l4.438,30.137
			C79.915,390.238,77.743,391.98,76.739,394.062 M106.376,410.777c-5.793,3.531-16.23,5.68-24.301,6.695
			c1.266-4.77,1.16-9.031,0.816-12.562c2.625,1.02,5.789,1.234,9.434,0.617c2.48-0.43,5.195-1.227,8.125-2.391
			c13.422-5.406,27.859-9.383,33.578-10.867c0.043,0.117,0.086,0.234,0.098,0.348c0.367,1.355,1.422,4.793,2.855,9.359
			C123.501,404.152,113.872,406.219,106.376,410.777 M141.075,445.293l-7.129-23.07l5.535-3.227
			c0.812-0.484,1.098-1.527,0.617-2.352c-0.484-0.828-1.531-1.109-2.355-0.625l-4.875,2.828l-2.902-9.445
			c2.742-0.516,5.699-1.016,8.887-1.523c3.352,10.594,7.77,24.234,10.789,33.586C146.688,442.801,143.54,444.199,141.075,445.293
			 M156.243,438.426c-0.32,0.156-0.633,0.309-0.996,0.473c-2.93-9.043-7.047-21.816-10.281-31.969
			c0.668-0.098,1.316-0.207,1.988-0.305c1.656-0.254,3.375-0.512,5.102-0.789l7.75,31.059
			C158.603,437.363,157.399,437.879,156.243,438.426 M163.075,435.746l-7.598-30.445c4.625-0.719,10.07-1.496,15.848-2.266
			l1.855,4.828l-6.547,0.914c-0.93,0.148-1.594,1.004-1.469,1.953c0.137,0.934,1.008,1.586,1.961,1.461l8.625-1.215
			c0.031-0.004,0.062-0.008,0.094-0.008l5.176-0.73l2.473,12.914l-15.168,2.492l0,0c-0.926,0.156-1.566,1.039-1.434,1.969
			c0.176,0.945,1.035,1.578,2.004,1.43l7.332-1.211l0.965,5.402C172.149,433.543,167.47,434.375,163.075,435.746 M240.985,398.996
			c0.555,2.574,1.125,5.098,1.695,7.543l-14.348,2.07l-10.328,0.25c-0.957,0.023-1.715,0.801-1.691,1.754
			c0.027,0.953,0.812,1.703,1.766,1.684l10.426-0.254c0.074,0,0.141,0,0.215,0l14.75-2.141c2.023,8.57,3.918,15.871,4.977,19.891
			c-9.465,1.367-18.766,2.246-23.57,2.266c-0.102,0-0.188,0-0.273,0.008c-0.23,0.016-24.137,2.039-37.773,1.195
			c-2.105-0.133-4.16-0.18-6.168-0.156l-1.039-5.828l6.172-1.016h0.008c0.445-0.078,0.859-0.328,1.109-0.711
			c0.285-0.383,0.371-0.852,0.285-1.305l-3.105-16.266c-0.188-0.898-1.031-1.504-1.938-1.375l-5.457,0.766l-1.883-4.812
			c8.32-1.094,17.012-2.172,24.551-3.082l0.062,2.621l-9.75,0.234c-0.48,0.004-0.938,0.211-1.266,0.582
			c-0.305,0.348-0.473,0.828-0.41,1.309l0.379,4.066c0.102,0.949,0.965,1.637,1.895,1.543c0.043,0,0.07,0,0.113-0.008
			c0.887-0.148,1.523-0.965,1.438-1.867l-0.215-2.227l9.617-0.227c0.461-0.016,0.891-0.203,1.215-0.535
			c0.297-0.34,0.477-0.777,0.469-1.227l-0.113-4.672c8.781-1.047,15.434-1.809,17.156-1.996
			C227.243,398.27,233.735,398.91,240.985,398.996 M239.677,392.848c-6.523-0.152-12.508-0.773-19.148-1.883
			c-0.277-0.055-0.574-0.055-0.844-0.023c-0.098,0-2.723,0.305-6.902,0.789l-2.906-42.234l4.645-0.113l0.375,16.348
			c0.012,0.367,0.168,0.715,0.441,0.965c0.277,0.246,0.637,0.371,1.004,0.344l18.812-1.387c0.598,4.23,1.199,8.219,1.742,11.82
			C237.642,382.363,238.61,387.605,239.677,392.848 M239.583,338.73l-1.168,0.031l-1.723-5.953c-0.082-0.57-0.172-1.148-0.25-1.719
			l3.262-0.219L239.583,338.73z M239.747,327.801l-3.715,0.25c-0.613-4.227-1.215-8.416-1.785-12.406
			c1.809,0.016,3.711,0.039,5.688,0.068L239.747,327.801z M233.677,311.822c-0.41-2.777-0.801-5.398-1.195-7.779
			c3.559-0.639,9.754-1.725,15.027-2.629c0.695,4.494,1.258,8.023,1.719,10.654C243.665,311.926,238.376,311.852,233.677,311.822
			 M245.563,317.279c-0.676,0.117-1.203,0.703-1.246,1.41c0,0.062-0.105,1.84,0.168,8.01c0.086,1.664-0.285,1.988-0.316,1.992
			c-0.164,0.105-0.758-0.039-1.379-0.328l0.203-12.604c2.242,0.043,4.543,0.088,6.898,0.15c0.043,0.215,0.07,0.424,0.105,0.619
			L245.563,317.279z M249.364,293.205l21.109-4.031c0.562,2.211,1.5,5.893,2.535,10.186c-0.836-0.082-1.516-0.129-1.973-0.143
			c-1.543-0.02-3.336-0.415-5.223-0.829c-3.234-0.699-6.895-1.496-10.895-0.906c-1.18,0.172-2.855,0.449-4.801,0.775
			C249.892,296.667,249.626,294.998,249.364,293.205 M259.583,312.416l-0.023-0.957l3.816-0.092l0.023,1.223
			C262.126,312.525,260.853,312.467,259.583,312.416 M273.692,313.146l-0.055,0.057c-2.734-0.201-5.512-0.371-8.312-0.525
			l-0.043-2.303c-0.012-0.258-0.137-0.496-0.309-0.672c-0.168-0.17-0.434-0.268-0.676-0.266l-5.742,0.141
			c-0.523,0.008-0.945,0.443-0.945,0.977l0.059,1.777c-1.793-0.064-3.574-0.131-5.332-0.176c-0.449-2.68-1.062-6.41-1.809-11.25
			c1.945-0.336,3.613-0.6,4.789-0.771c3.504-0.527,6.773,0.186,9.918,0.877c2.031,0.441,3.961,0.861,5.766,0.887
			c0.523,0.012,1.445,0.09,2.637,0.217C274.763,307.715,273.997,311.918,273.692,313.146 M294.04,315.568
			c-5.113-0.918-11.184-1.623-17.648-2.146c0.355-1.695,0.934-5.701,0.043-10.961c1.836,0.215,3.969,0.502,6.137,0.795
			c4.902,0.648,8.945,1.158,12.215,1.531C294.786,310.531,294.353,313.877,294.04,315.568 M294.763,302.088
			c-4.023-0.459-8.43-1.045-11.828-1.492c-2.688-0.363-5.109-0.676-7.102-0.914c-1.109-4.6-2.117-8.616-2.742-11.012l20.457-3.916
			C294.325,291.914,294.665,297.593,294.763,302.088 M293.235,281.318l-21.465,4.1c-0.277-0.129-0.602-0.174-0.938-0.086
			c-0.254,0.062-0.469,0.207-0.652,0.387l-21.309,4.08c-0.309-2.162-0.629-4.463-0.969-6.9c-0.512-3.576-0.977-6.836-1.41-9.859
			c15.32-2.578,38.77-6.275,45.484-6.783C292.462,271.025,292.892,276.052,293.235,281.318 M291.63,262.867
			c-9.184,0.699-37.664,5.422-45.648,6.752c-0.23-1.598-0.473-3.125-0.695-4.586l10.746-1.91c0.016,0,0.035-0.092,0.074-0.102
			l17.805-4.15c0.688-0.111,10.711-1.898,17.004-1.973C291.165,258.835,291.403,260.826,291.63,262.867 M290.544,253.843
			c-6.762,0.154-16.73,1.945-17.207,2.033c-0.031,0-0.059,0.02-0.09,0.021l-17.812,4.154l-10.676,1.867
			c-0.473-2.836-0.973-5.412-1.469-7.814l15.812-2.367c0.012-0.002,0.078-0.004,0.102-0.012c0.219-0.047,20.355-4.381,30.273-5.395
			C289.853,248.734,290.192,251.236,290.544,253.843 M289.001,243.3c-9.965,1.043-29.008,5.121-30.398,5.412l-15.973,2.404
			c-1.312-5.605-2.812-10.236-4.879-15.066l-0.617-1.48c-0.926-2.104-1.934-4.484-3-7.004c5.961-2.117,17.609-6.299,30.988-11.104
			l3.441,5.387c0.297,0.475,0.828,0.695,1.348,0.605c0.168-0.029,0.348-0.092,0.5-0.195c0.625-0.396,0.801-1.221,0.398-1.848
			l-3.109-4.879c4.652-1.666,9.5-3.404,14.344-5.146c0.441,1.564,1.344,4.852,2.492,9.703l-2.305,0.984l-4.141,1.811
			c-0.32,0.145-0.574,0.414-0.711,0.738c-0.121,0.332-0.121,0.713,0.031,1.033l2.242,5.027l0.609,2.008
			c0.176,0.662,0.836,1.051,1.492,0.941c0.055-0.004,0.098-0.021,0.168-0.033c0.699-0.205,1.102-0.951,0.879-1.664l-0.602-2.09
			c-0.008-0.053-0.039-0.109-0.055-0.166l-1.738-3.875l2.883-1.268l1.836-0.799C286.333,228.132,287.712,235.033,289.001,243.3"/>
	</g>
	<path fill="#0086C6" d="M236.833,289.263c-16.117,13.76-84.34,20.372-84.34,20.372s18.398-64.959,34.516-78.717
		c16.113-13.766,40.324-11.861,54.098,4.264C254.86,251.292,252.946,275.503,236.833,289.263"/>
	<path fill="#F4F5DF" d="M199.544,241.49c9.527-7.754,23.512-6.309,31.285,3.205c7.746,9.525,6.316,23.539-3.211,31.289
		c-9.527,7.762-23.543,6.322-31.293-3.195C188.579,263.263,189.997,249.244,199.544,241.49"/>
	<path fill="#FFFFFF" d="M474.47,306.314v-18.559c0-0.34-0.16-0.602-0.438-0.789c-0.301-0.191-0.559-0.291-0.77-0.291h-0.32
		c-0.223,0-0.453,0.09-0.734,0.268c-0.262,0.186-0.453,0.42-0.574,0.711l-0.938,1.986c-0.242,0.516-0.562,1.16-0.906,1.938
		c-0.371,0.779-0.82,1.719-1.359,2.848c-0.523,1.125-1.168,2.451-1.895,3.969c-0.734,1.54-1.578,3.309-2.543,5.329
		c-0.152,0.312-0.336,0.627-0.555,0.938c-0.203,0.32-0.41,0.604-0.688,0.844c-0.258,0.25-0.535,0.453-0.848,0.611
		c-0.316,0.156-0.645,0.223-0.988,0.223h-0.523c-0.855-0.035-1.496-0.262-1.953-0.684c-0.449-0.416-0.895-1.041-1.316-1.906
		l-7.672-16.094c-0.137-0.27-0.25-0.459-0.332-0.57c-0.082-0.117-0.203-0.229-0.383-0.334c-0.133-0.053-0.293-0.074-0.48-0.074
		h-0.363c-0.27,0-0.539,0.123-0.805,0.352c-0.273,0.238-0.41,0.479-0.41,0.729v18.559h-3.707v-18.696
		c0-0.582,0.141-1.141,0.395-1.693c0.258-0.531,0.605-1.01,1.043-1.439c0.43-0.428,0.941-0.775,1.523-1.025
		c0.57-0.254,1.168-0.408,1.793-0.453l0.531-0.031c0.66,0,1.242,0.1,1.758,0.293c0.273,0.096,0.539,0.236,0.824,0.43
		c0.285,0.186,0.551,0.408,0.789,0.652c0.246,0.25,0.477,0.5,0.664,0.764c0.188,0.258,0.328,0.479,0.391,0.686l0.191,0.434
		c1.285,2.68,2.555,5.344,3.816,8.021c1.262,2.67,2.52,5.344,3.805,8.016l0.055,0.139l7.75-16.235
		c0.219-0.477,0.543-0.959,0.926-1.467c0.41-0.514,0.871-0.902,1.406-1.195c0.309-0.16,0.66-0.289,1.051-0.391
		s0.766-0.146,1.168-0.146l0.504,0.031c0.578,0,1.172,0.146,1.723,0.414c0.551,0.287,1.055,0.65,1.508,1.08
		c0.465,0.445,0.816,0.93,1.098,1.471c0.273,0.537,0.438,1.064,0.449,1.582v18.76H474.47z"/>
	<path fill="#FFFFFF" d="M495.552,306.338c-1.348,0-2.609-0.246-3.781-0.75c-1.18-0.498-2.207-1.201-3.086-2.07
		c-0.879-0.873-1.582-1.896-2.082-3.084c-0.5-1.17-0.746-2.434-0.746-3.795v-3.973c0-1.318,0.246-2.568,0.746-3.75
		c0.5-1.172,1.203-2.201,2.082-3.088c0.879-0.873,1.906-1.557,3.086-2.064c1.172-0.502,2.434-0.756,3.781-0.756h16.363
		c1.355,0,2.613,0.254,3.789,0.756c1.195,0.508,2.211,1.191,3.086,2.064c0.875,0.887,1.586,1.916,2.078,3.088
		c0.496,1.182,0.746,2.432,0.746,3.75v3.973c0,1.361-0.25,2.625-0.746,3.795c-0.492,1.188-1.203,2.211-2.078,3.084
		c-0.875,0.869-1.891,1.572-3.086,2.07c-1.176,0.504-2.434,0.75-3.789,0.75H495.552z M489.563,296.638
		c0,0.846,0.148,1.621,0.465,2.352c0.312,0.731,0.738,1.364,1.262,1.907c0.551,0.541,1.184,0.965,1.91,1.271
		c0.746,0.324,1.508,0.477,2.352,0.477h16.363c0.848,0,1.605-0.152,2.352-0.477c0.73-0.307,1.359-0.73,1.934-1.271
		c0.531-0.543,0.945-1.176,1.281-1.907c0.305-0.73,0.48-1.506,0.48-2.352v-3.973c0-0.803-0.176-1.566-0.48-2.299
		c-0.336-0.729-0.75-1.373-1.281-1.912c-0.574-0.566-1.203-0.996-1.934-1.311c-0.746-0.309-1.504-0.469-2.352-0.469h-16.363
		c-0.844,0-1.605,0.16-2.352,0.469c-0.727,0.314-1.359,0.744-1.91,1.311c-0.523,0.539-0.949,1.184-1.262,1.912
		c-0.316,0.732-0.465,1.496-0.465,2.299V296.638z"/>
	<path fill="#FFFFFF" d="M552.536,306.08c-0.305-0.141-0.605-0.301-0.863-0.506c-0.262-0.209-0.559-0.471-0.852-0.807
		c-1.176-1.375-2.418-2.814-3.73-4.346c-1.273-1.534-2.574-3.067-3.895-4.614c-1.32-1.553-2.625-3.09-3.906-4.598
		c-1.305-1.52-2.527-2.967-3.695-4.367c-0.266-0.27-0.602-0.404-1.008-0.404c-0.352,0-0.695,0.086-0.973,0.275
		c-0.266,0.182-0.418,0.455-0.441,0.84v18.784h-3.676v-19.051l0.027-0.1c0.066-0.697,0.227-1.324,0.535-1.895
		c0.301-0.559,0.699-1.035,1.172-1.412c0.488-0.383,1.031-0.672,1.617-0.873c0.582-0.203,1.195-0.301,1.801-0.301
		c0.711,0,1.398,0.133,2.082,0.416c0.66,0.289,1.234,0.748,1.727,1.393c2.539,2.996,5.074,5.965,7.582,8.936
		c2.516,2.967,5.066,5.944,7.617,8.959c0.098,0.117,0.254,0.213,0.453,0.297c0.184,0.092,0.387,0.137,0.559,0.137
		c0.309,0,0.594-0.102,0.867-0.307c0.273-0.195,0.441-0.469,0.523-0.807v-18.795h3.699v19.067c-0.074,0.699-0.262,1.324-0.59,1.891
		c-0.309,0.561-0.684,1.037-1.137,1.441c-0.488,0.406-1.004,0.719-1.578,0.926c-0.605,0.215-1.207,0.322-1.832,0.322
		c-0.328,0-0.676-0.039-1.047-0.119C553.212,306.381,552.849,306.26,552.536,306.08"/>
	<rect x="567.583" y="283.007" fill="#FFFFFF" width="3.73" height="23.331"/>
	<polygon fill="#FFFFFF" points="606.962,286.675 594.376,286.675 594.376,306.338 590.7,306.338 590.7,286.675 578.099,286.675 
		578.099,283.007 606.962,283.007 	"/>
	<path fill="#FFFFFF" d="M621.489,306.338c-1.348,0-2.621-0.246-3.797-0.75c-1.172-0.498-2.199-1.201-3.086-2.07
		c-0.863-0.873-1.551-1.896-2.062-3.084c-0.5-1.17-0.754-2.434-0.754-3.795v-3.973c0-1.318,0.254-2.568,0.754-3.75
		c0.512-1.172,1.199-2.201,2.062-3.088c0.887-0.873,1.914-1.557,3.086-2.064c1.176-0.502,2.449-0.756,3.797-0.756h16.355
		c1.352,0,2.629,0.254,3.809,0.756c1.172,0.508,2.199,1.191,3.09,2.064c0.859,0.887,1.547,1.916,2.066,3.088
		c0.488,1.182,0.746,2.432,0.746,3.75v3.973c0,1.361-0.258,2.625-0.746,3.795c-0.52,1.188-1.207,2.211-2.066,3.084
		c-0.891,0.869-1.918,1.572-3.09,2.07c-1.18,0.504-2.457,0.75-3.809,0.75H621.489z M615.493,296.638
		c0,0.846,0.148,1.621,0.473,2.352c0.309,0.731,0.727,1.364,1.281,1.907c0.539,0.541,1.18,0.965,1.906,1.271
		c0.723,0.324,1.5,0.477,2.336,0.477h16.355c0.844,0,1.637-0.152,2.348-0.477c0.738-0.307,1.379-0.73,1.918-1.271
		c0.551-0.543,0.988-1.176,1.297-1.907c0.328-0.73,0.473-1.506,0.473-2.352v-3.973c0-0.803-0.145-1.566-0.473-2.299
		c-0.309-0.729-0.746-1.373-1.297-1.912c-0.539-0.566-1.18-0.996-1.918-1.311c-0.711-0.309-1.504-0.469-2.348-0.469h-16.355
		c-0.836,0-1.613,0.16-2.336,0.469c-0.727,0.314-1.367,0.744-1.906,1.311c-0.555,0.539-0.973,1.184-1.281,1.912
		c-0.324,0.732-0.473,1.496-0.473,2.299V296.638z"/>
	<path fill="#FFFFFF" d="M684.177,295.605c-0.43,0.445-0.93,0.818-1.492,1.127c-0.566,0.305-1.148,0.535-1.734,0.715
		c0.5,0.697,1.039,1.441,1.625,2.19c0.574,0.771,1.148,1.533,1.734,2.316c0.574,0.775,1.156,1.537,1.723,2.287
		c0.562,0.756,1.086,1.453,1.574,2.098h-4.664l-6.395-8.545h-17.75v8.545h-3.66v-23.331h23.641c1.559,0,2.984,0.404,4.238,1.209
		c1.066,0.654,1.91,1.521,2.531,2.607c0.637,1.096,0.953,2.275,0.953,3.559c0,1.041-0.215,1.988-0.625,2.881
		c-0.395,0.891-0.957,1.68-1.699,2.369V295.605z M658.798,294.08h20.094c0.512,0,1.008-0.088,1.492-0.275
		c0.469-0.195,0.883-0.455,1.254-0.793c0.352-0.346,0.664-0.725,0.871-1.193c0.219-0.438,0.309-0.92,0.309-1.436
		c0-0.521-0.113-1.002-0.316-1.445c-0.238-0.445-0.539-0.85-0.91-1.182c-0.379-0.34-0.781-0.602-1.281-0.789
		c-0.484-0.191-0.965-0.291-1.531-0.291h-19.98V294.08z"/>
	<path fill="#FFFFFF" d="M698.712,288.431c-0.547,0.555-0.965,1.201-1.277,1.92c-0.301,0.717-0.457,1.494-0.457,2.314v0.172h25.258
		v3.707h-25.258v0.168c0,0.811,0.156,1.574,0.457,2.299c0.312,0.709,0.734,1.342,1.305,1.885c0.547,0.541,1.184,0.965,1.934,1.271
		c0.719,0.324,1.492,0.477,2.297,0.477h19.266v3.693H702.97c-1.355,0-2.621-0.248-3.797-0.762c-1.18-0.52-2.195-1.215-3.07-2.086
		c-0.879-0.887-1.594-1.906-2.07-3.088c-0.52-1.184-0.762-2.428-0.762-3.764v-3.973c0-1.338,0.242-2.598,0.762-3.756
		c0.531-1.178,1.211-2.195,2.102-3.082c0.867-0.873,1.895-1.557,3.066-2.064c1.199-0.502,2.438-0.756,3.77-0.756h19.266v3.668
		H702.97c-0.863,0-1.641,0.16-2.363,0.469C699.892,287.458,699.251,287.888,698.712,288.431"/>
	<path fill="#FFFFFF" d="M740.489,306.338c-1.359,0-2.609-0.246-3.797-0.75c-1.164-0.498-2.207-1.201-3.074-2.07
		c-0.902-0.873-1.57-1.896-2.09-3.084c-0.484-1.17-0.738-2.434-0.738-3.795v-3.973c0-1.318,0.254-2.568,0.738-3.75
		c0.52-1.172,1.188-2.201,2.09-3.088c0.867-0.873,1.91-1.557,3.074-2.064c1.188-0.502,2.438-0.756,3.797-0.756h16.367
		c1.344,0,2.609,0.254,3.801,0.756c1.16,0.508,2.188,1.191,3.066,2.064c0.879,0.887,1.574,1.916,2.066,3.088
		c0.52,1.182,0.758,2.432,0.758,3.75v3.973c0,1.361-0.238,2.625-0.758,3.795c-0.492,1.188-1.188,2.211-2.066,3.084
		c-0.879,0.869-1.906,1.572-3.066,2.07c-1.191,0.504-2.457,0.75-3.801,0.75H740.489z M734.485,296.638
		c0,0.846,0.164,1.621,0.48,2.352c0.309,0.731,0.734,1.364,1.27,1.907c0.555,0.541,1.176,0.965,1.914,1.271
		c0.727,0.324,1.5,0.477,2.34,0.477h16.367c0.828,0,1.613-0.152,2.336-0.477c0.727-0.307,1.379-0.73,1.922-1.271
		c0.547-0.543,0.969-1.176,1.297-1.907c0.328-0.73,0.461-1.506,0.461-2.352v-3.973c0-0.803-0.133-1.566-0.461-2.299
		c-0.328-0.729-0.75-1.373-1.297-1.912c-0.543-0.566-1.195-0.996-1.922-1.311c-0.723-0.309-1.508-0.469-2.336-0.469h-16.367
		c-0.84,0-1.613,0.16-2.34,0.469c-0.738,0.314-1.359,0.744-1.914,1.311c-0.535,0.539-0.961,1.184-1.27,1.912
		c-0.316,0.732-0.48,1.496-0.48,2.299V296.638z"/>
	<path fill="#FFFFFF" stroke="#FFFFFF" stroke-width="2.0488" stroke-miterlimit="10" d="M288.13,307.619
		c-1.867,0-3.633-0.365-5.285-1.076c-1.66-0.717-3.098-1.695-4.324-2.924c-1.246-1.244-2.234-2.705-2.965-4.361
		c-0.734-1.678-1.105-3.463-1.105-5.368v-5.627c0-1.875,0.363-3.639,1.078-5.295c0.723-1.648,1.699-3.098,2.926-4.34
		c1.242-1.242,2.684-2.215,4.348-2.957c1.648-0.725,3.426-1.09,5.328-1.09h19.832v5.197H288.13c-1.156,0-2.227,0.217-3.262,0.666
		c-1.031,0.443-1.922,1.043-2.691,1.811c-0.762,0.762-1.375,1.652-1.84,2.67c-0.449,1.021-0.699,2.096-0.699,3.236v5.729
		c0,1.143,0.234,2.232,0.68,3.262c0.445,1.033,1.055,1.944,1.82,2.717c0.766,0.781,1.645,1.393,2.656,1.834
		c1.02,0.445,2.105,0.672,3.25,0.672h15.352c1.141,0,2.238-0.227,3.27-0.672c1.027-0.441,1.914-1.049,2.688-1.812
		c0.766-0.754,1.359-1.653,1.824-2.67c0.473-1.014,0.703-2.088,0.703-3.236v-0.389h-14.258v-5.236h19.492v5.531
		c0,1.883-0.355,3.639-1.07,5.311c-0.715,1.672-1.688,3.127-2.926,4.363c-1.238,1.238-2.699,2.219-4.367,2.957
		c-1.676,0.73-3.453,1.098-5.355,1.098H288.13z"/>
	<path fill="#FFFFFF" stroke="#FFFFFF" stroke-width="2.4383" stroke-miterlimit="10" d="M288.13,307.619
		c-1.867,0-3.633-0.365-5.285-1.076c-1.66-0.717-3.098-1.695-4.324-2.924c-1.246-1.244-2.234-2.705-2.965-4.361
		c-0.734-1.678-1.105-3.463-1.105-5.368v-5.627c0-1.875,0.363-3.639,1.078-5.295c0.723-1.648,1.699-3.098,2.926-4.34
		c1.242-1.242,2.684-2.215,4.348-2.957c1.648-0.725,3.426-1.09,5.328-1.09h19.832v5.197H288.13c-1.156,0-2.227,0.217-3.262,0.666
		c-1.031,0.443-1.922,1.043-2.691,1.811c-0.762,0.762-1.375,1.652-1.84,2.67c-0.449,1.021-0.699,2.096-0.699,3.236v5.729
		c0,1.143,0.234,2.232,0.68,3.262c0.445,1.033,1.055,1.944,1.82,2.717c0.766,0.781,1.645,1.393,2.656,1.834
		c1.02,0.445,2.105,0.672,3.25,0.672h15.352c1.141,0,2.238-0.227,3.27-0.672c1.027-0.441,1.914-1.049,2.688-1.812
		c0.766-0.754,1.359-1.653,1.824-2.67c0.473-1.014,0.703-2.088,0.703-3.236v-0.389h-14.258v-5.236h19.492v5.531
		c0,1.883-0.355,3.639-1.07,5.311c-0.715,1.672-1.688,3.127-2.926,4.363c-1.238,1.238-2.699,2.219-4.367,2.957
		c-1.676,0.73-3.453,1.098-5.355,1.098H288.13z"/>
	<path fill="#FFFFFF" stroke="#FFFFFF" stroke-width="2.0488" stroke-miterlimit="10" d="M335.618,282.255
		c-0.77,0.797-1.379,1.699-1.816,2.715c-0.445,1.021-0.66,2.113-0.66,3.293v0.234h35.734v5.244h-35.734v0.242
		c0,1.148,0.215,2.223,0.66,3.236c0.438,1.018,1.047,1.917,1.844,2.67c0.766,0.764,1.688,1.371,2.703,1.812
		c1.031,0.445,2.125,0.668,3.281,0.668h27.246v5.248H341.63c-1.914,0-3.711-0.367-5.375-1.098c-1.656-0.738-3.113-1.719-4.352-2.957
		c-1.242-1.236-2.234-2.691-2.941-4.363c-0.723-1.672-1.074-3.428-1.074-5.311v-5.627c0-1.9,0.371-3.688,1.105-5.348
		c0.727-1.643,1.707-3.09,2.949-4.334c1.242-1.23,2.699-2.217,4.379-2.924c1.664-0.719,3.43-1.076,5.309-1.076h27.246v5.197H341.63
		c-1.211,0-2.324,0.217-3.352,0.666C337.263,280.886,336.368,281.488,335.618,282.255"/>
	<path fill="#FFFFFF" stroke="#FFFFFF" stroke-width="2.4383" stroke-miterlimit="10" d="M335.618,282.255
		c-0.77,0.797-1.379,1.699-1.816,2.715c-0.445,1.021-0.66,2.113-0.66,3.293v0.234h35.734v5.244h-35.734v0.242
		c0,1.148,0.215,2.223,0.66,3.236c0.438,1.018,1.047,1.917,1.844,2.67c0.766,0.764,1.688,1.371,2.703,1.812
		c1.031,0.445,2.125,0.668,3.281,0.668h27.246v5.248H341.63c-1.914,0-3.711-0.367-5.375-1.098c-1.656-0.738-3.113-1.719-4.352-2.957
		c-1.242-1.236-2.234-2.691-2.941-4.363c-0.723-1.672-1.074-3.428-1.074-5.311v-5.627c0-1.9,0.371-3.688,1.105-5.348
		c0.727-1.643,1.707-3.09,2.949-4.334c1.242-1.23,2.699-2.217,4.379-2.924c1.664-0.719,3.43-1.076,5.309-1.076h27.246v5.197H341.63
		c-1.211,0-2.324,0.217-3.352,0.666C337.263,280.886,336.368,281.488,335.618,282.255z"/>
	<path fill="#FFFFFF" stroke="#FFFFFF" stroke-width="2.0488" stroke-miterlimit="10" d="M394.72,307.619
		c-1.906,0-3.695-0.365-5.355-1.076c-1.668-0.717-3.121-1.695-4.352-2.924c-1.25-1.248-2.227-2.705-2.945-4.361
		c-0.715-1.678-1.07-3.463-1.07-5.368v-5.627c0-1.875,0.355-3.646,1.07-5.314c0.719-1.676,1.695-3.125,2.945-4.367
		c1.23-1.23,2.684-2.217,4.352-2.934c1.66-0.709,3.449-1.066,5.355-1.066h23.172c1.918,0,3.703,0.357,5.371,1.066
		c1.664,0.717,3.121,1.703,4.367,2.934c1.234,1.242,2.211,2.691,2.926,4.367c0.707,1.668,1.062,3.439,1.062,5.314v5.627
		c0,1.904-0.355,3.689-1.062,5.368c-0.715,1.656-1.691,3.113-2.926,4.361c-1.246,1.229-2.703,2.207-4.367,2.924
		c-1.668,0.711-3.453,1.076-5.371,1.076H394.72z M386.243,293.89c0,1.168,0.219,2.281,0.664,3.314
		c0.445,1.021,1.043,1.917,1.812,2.686c0.758,0.764,1.668,1.371,2.688,1.812c1.043,0.445,2.141,0.668,3.312,0.668h23.172
		c1.184,0,2.285-0.223,3.316-0.668c1.031-0.441,1.945-1.049,2.719-1.812c0.77-0.77,1.383-1.665,1.828-2.686
		c0.457-1.033,0.672-2.146,0.672-3.314v-5.627c0-1.154-0.215-2.24-0.672-3.268c-0.445-1.035-1.059-1.941-1.828-2.721
		c-0.773-0.777-1.688-1.389-2.719-1.83c-1.031-0.449-2.133-0.666-3.316-0.666H394.72c-1.172,0-2.27,0.217-3.312,0.666
		c-1.02,0.441-1.93,1.053-2.688,1.83c-0.77,0.779-1.367,1.686-1.812,2.721c-0.445,1.027-0.664,2.113-0.664,3.268V293.89z"/>
	<path fill="#FFFFFF" stroke="#FFFFFF" stroke-width="2.4383" stroke-miterlimit="10" d="M394.72,307.619
		c-1.906,0-3.695-0.365-5.355-1.076c-1.668-0.717-3.121-1.695-4.352-2.924c-1.25-1.248-2.227-2.705-2.945-4.361
		c-0.715-1.678-1.07-3.463-1.07-5.368v-5.627c0-1.875,0.355-3.646,1.07-5.314c0.719-1.676,1.695-3.125,2.945-4.367
		c1.23-1.23,2.684-2.217,4.352-2.934c1.66-0.709,3.449-1.066,5.355-1.066h23.172c1.918,0,3.703,0.357,5.371,1.066
		c1.664,0.717,3.121,1.703,4.367,2.934c1.234,1.242,2.211,2.691,2.926,4.367c0.707,1.668,1.062,3.439,1.062,5.314v5.627
		c0,1.904-0.355,3.689-1.062,5.368c-0.715,1.656-1.691,3.113-2.926,4.361c-1.246,1.229-2.703,2.207-4.367,2.924
		c-1.668,0.711-3.453,1.076-5.371,1.076H394.72z M386.243,293.89c0,1.168,0.219,2.281,0.664,3.314
		c0.445,1.021,1.043,1.917,1.812,2.686c0.758,0.764,1.668,1.371,2.688,1.812c1.043,0.445,2.141,0.668,3.312,0.668h23.172
		c1.184,0,2.285-0.223,3.316-0.668c1.031-0.441,1.945-1.049,2.719-1.812c0.77-0.77,1.383-1.665,1.828-2.686
		c0.457-1.033,0.672-2.146,0.672-3.314v-5.627c0-1.154-0.215-2.24-0.672-3.268c-0.445-1.035-1.059-1.941-1.828-2.721
		c-0.773-0.777-1.688-1.389-2.719-1.83c-1.031-0.449-2.133-0.666-3.316-0.666H394.72c-1.172,0-2.27,0.217-3.312,0.666
		c-1.02,0.441-1.93,1.053-2.688,1.83c-0.77,0.779-1.367,1.686-1.812,2.721c-0.445,1.027-0.664,2.113-0.664,3.268V293.89z"/>
</g>
</svg>
